<svg version="1.1" id="Layer_1" xmlns="http://www.w3.org/2000/svg" xmlns:xlink="http://www.w3.org/1999/xlink" x="0px" y="0px" viewBox="0 0 88.3 62.8" style="enable-background:new 0 0 88.3 62.8;" xml:space="preserve">
 <style type="text/css">
  .st0{fill:#191D4C;}
 </style>
 <g id="dt" transform="translate(-0.191 -0.023)">
  <path id="Shape" class="st0" d="M52.9,2.3c-3.6-1.2-7.3-1.7-11-1.5h-2.1c0,0,0-0.1,0-0.1c0.1-0.1,0-0.1-0.1-0.2s-0.3,0-0.3-0.3
		s-0.3,0-0.3,0.1c-0.1,0.1,0,0.2-0.4,0.3h-0.1c0,0,0.1,0,0-0.1s0-0.1-0.2,0c-0.2,0.1,0,0.1-0.1,0.1c-0.1,0-0.1-0.1-0.2-0.1
		s-0.1-0.1-0.3,0.1s-0.1,0.1-0.1,0c0-0.1,0-0.3,0-0.4c0-0.2-0.1-0.1-0.1-0.1s0,0.1-0.2,0.2s-0.1-0.1,0,0.2s-0.1,0.1-0.2,0.1
		s-0.1,0-0.2,0.1s0-0.1-0.1,0.1s-0.1,0-0.2,0.1s0,0.3-0.2,0.3c-0.2,0-0.1-0.2-0.1-0.3c0-0.1,0-0.2-0.1-0.2c0,0,0,0,0,0
		c0,0,0,0.2-0.2,0.2s0-0.1-0.1-0.2S36,0.7,36,0.9c0,0.2,0,0.3,0,0.5c0,0.3-0.1,0.1-0.5-0.1c-0.4-0.2-0.3,0-0.4,0
		c-0.1,0-0.2-0.1-0.2-0.2c0-0.1,0.2-0.2,0.2-0.2S35,0.5,34.9,0.6c-0.1,0-0.2-0.2-0.3-0.3c-0.1,0-0.2,0.2-0.2,0.2c0,0.1,0,0-0.1,0.1
		s-0.1,0-0.1,0.1c0,0.1,0,0.1,0,0.2c0,0,0.3-0.2,0.2,0c0,0.1-0.2,0.2-0.3,0.1c0,0,0,0,0,0c-0.1,0-0.2-0.1-0.3,0s0,0.2-0.1,0.2
		c-0.1,0-0.2,0.1-0.3,0c-0.1-0.1,0-0.2-0.1-0.2c-0.1,0-0.2,0-0.1-0.2c0.1-0.2,0.3-0.2,0.1-0.3c-0.2,0-0.2-0.1-0.2-0.1
		c0,0-0.2,0-0.2,0c-0.1,0,0-0.2-0.2-0.1c-0.2,0.1-0.2,0.1-0.2,0.2c0.1,0.1,0.1,0.2-0.1,0.3c-0.2,0-0.1,0.1,0,0.2
		c0.1,0,0.2,0.1,0.1,0.1c-0.1,0.1-0.2,0.1-0.3,0.1c-0.1,0-0.1-0.3-0.3-0.2c-0.2,0.1-0.2,0.1-0.2,0.1c0-0.1,0-0.1-0.2-0.2
		c-0.2-0.1-0.1,0-0.2,0c-0.1,0-0.1,0.3-0.2,0.3c-0.2,0.1,0,0.2-0.1,0.1c-0.1,0,0-0.1-0.1-0.2S31,1,30.8,1.2s0,0.4-0.2,0.3
		c-0.2-0.1,0,0.2-0.1,0.2c-0.1,0,0-0.4-0.2-0.1s-0.2,0.1-0.2,0.2c0.1,0.1,0,0.2-0.1,0.2c-0.1,0-0.2-0.5-0.4-0.4
		c-0.2,0-0.2,0.1-0.2-0.1s0,0-0.1,0s-0.1-0.2-0.2-0.2h-0.3c-0.1,0-0.3-0.1-0.2,0c0,0.1,0.1,0.2,0.1,0.2c0,0.2,0.1,0.1,0,0.2
		c-0.1,0.1,0,0.2,0,0.2c0,0.1,0-0.1-0.2,0s-0.2,0.1-0.2,0.2c0,0.1,0,0.2,0.1,0.1c0.1,0,0.1,0,0.1,0.1c0,0.1-0.1,0.2,0.1,0.1
		c0,0,0.1,0,0.1,0l0-0.1V2.3c0,0,0,0,0.1,0h0.1v0.1c0,0.1,0.1,0.2,0,0.2c-0.1,0-0.2,0-0.3,0c-0.3,0-0.2,0-0.3,0.1
		c0,0.1,0.1,0.2,0,0.2c0,0-0.1,0-0.1,0c0,0,0,0.1,0.1,0.1s0-0.1,0.2,0c0.2,0.1,0,0,0,0.1c0,0.1,0,0.2-0.1,0.2
		c-0.1,0.1-0.3-0.1-0.3,0.1c0,0.2-0.5,0.3-0.4,0.4c0.1,0.2,0.1-0.2,0.3-0.1c0.1,0,0,0.1,0,0.3c0,0.1,0.1,0,0.3-0.1
		c0.2-0.1,0.2,0.1,0.3,0.3c0,0.2-0.2,0.2-0.4,0.2c-0.2,0-0.1-0.2-0.2-0.1s-0.1,0.3-0.2,0.4c-0.1,0.1-0.2,0.1-0.3,0.3
		c0,0.2,0.2,0.2,0.3,0c0.1-0.2,0.2,0,0.2,0L28,5.2l0.5,0.1l0.3,0.2l0.1,0.2l-0.6-0.1c-0.2,0-0.3,0.1-0.5,0.2h-0.3
		c0,0-0.2,0.2-0.3,0.2C27.2,6,27.1,6,27,6l0.2,0.1v0.2h0.3l-0.1,0.2c0,0.1,0.1,0.2,0.1,0.2c0,0.1,0.1,0.3,0.2,0.3c0,0.1-0.2,0-0.2,0
		c-0.1,0-0.3-0.1-0.3-0.2c-0.1-0.1,0-0.3-0.1-0.3c-0.1,0-0.2-0.3-0.1-0.4s0.3-0.6,0.3-0.5c-0.1,0-0.2,0.1-0.3,0.1
		c0,0-0.1-0.3-0.2-0.3c-0.1,0-0.2,0.2-0.2,0.2s-0.1-0.2-0.2-0.2c-0.1,0.2-0.1,0.3,0,0.5c0.1,0.1,0.1,0.3,0.1,0.5
		c0,0.1-0.1,0.2-0.2,0.2C26,6.5,26,6.1,26,6.1c0,0.1-0.1,0.2-0.1,0.3h-0.3l0.1,0.3c0,0-0.6,0.2-0.6,0.2s0.4,0,0.4,0.1
		s-0.1,0.2-0.1,0.2c0.1,0.1,0,0.2-0.1,0.3c-0.1,0-0.1,0.1-0.2,0.2l-0.2,0.1L25,8l-0.4,0.4c0,0,0.2,0,0.3,0.1
		c0.1,0.1-0.2,0.3-0.2,0.4s0.3-0.1,0.3-0.1c0,0,0,0.2,0,0.2s0.1,0,0.2,0.1c0.1,0.1-0.2,0.2-0.2,0.3s0.2,0,0.2,0.1s0.1,0,0.2,0.1
		c0.1,0.1-0.1,0.2-0.2,0.3c-0.1,0.1,0,0.3-0.1,0.3c-0.1,0-0.2,0-0.3,0.1c-0.1,0.1-0.1,0.2-0.1,0.3c0,0.1-0.2,0-0.2,0.1s0.2,0,0.3,0
		c0.1,0,0.1,0.2,0,0.3c-0.1,0.1-0.2,0.1-0.3,0.2c-0.1,0.1,0,0.2,0,0.3s-0.2,0.2-0.1,0.2c0.1,0.1,0.2,0.1,0.3,0
		c0.1-0.1,0.3-0.1,0.4-0.1c0.1,0,0.1,0.2,0,0.3C25,12,25,12,25.1,12.1c0.1,0,0.3-0.1,0.3-0.2c0-0.1,0.2-0.4,0.2-0.4s0.1,0.1,0.1,0.1
		s-0.1,0.2,0,0.2c0.1,0-0.1,0.2-0.1,0.2c-0.1,0.1,0.2,0.1,0.2,0.2s-0.2,0.1-0.2,0.2s-0.1,0.2-0.2,0.2s-0.2-0.2-0.3-0.2
		c-0.1,0-0.2-0.3-0.2-0.3c-0.1,0,0,0.4,0,0.5c0,0.1-0.2-0.1-0.3-0.1c-0.1,0-0.2-0.3-0.2-0.2c0,0.1-0.1,0.2-0.1,0.4l-0.2,0.1
		l-0.2,0.2L24,13l0.3-0.1c0,0,0,0.1,0,0.1c0,0.1,0,0.1-0.1,0.2c-0.1,0.1,0.1,0.1,0.1,0.1v0.2c0,0,0.2-0.1,0.2-0.1
		c0.1,0,0.2-0.1,0.2-0.1l0.2-0.1c0,0.1,0,0.1,0,0.2l-0.1,0.2v0.1c0,0-0.1,0-0.2,0.1s0.1,0.1,0.1,0.1c0,0-0.1,0-0.1,0.1
		c0,0.1,0.1,0,0.2,0c0.1,0,0.1,0,0.2,0c0.1,0,0.1-0.1,0.1-0.2c0,0,0.1-0.1,0.1-0.1c0,0,0.1,0,0.1-0.1l0.1-0.2l0.1,0.1
		c0,0.1,0,0.1,0,0.2c0,0,0,0.1,0,0.2c0,0,0,0.1,0.1,0.1c0.1,0.1-0.1,0-0.1,0.1c0,0,0,0.1,0,0.1c0,0-0.1,0.1,0,0.1
		c0.1,0,0.1,0,0.2-0.1l0.2-0.2v0.2c0,0.1,0.1,0.1,0.1,0.1c0,0,0,0.2,0,0.2s0.1-0.2,0.1-0.2c0,0,0.1,0,0.2,0h0.1c0,0.1,0,0.1-0.1,0.2
		c-0.1,0.1-0.1,0.1-0.1,0.2c0,0.1,0,0.2-0.1,0.2h-0.2c-0.1,0-0.1-0.1-0.2-0.2v-0.1h-0.1l-0.1-0.1v0.1h-0.1l-0.1,0.1l-0.2-0.1
		l-0.1-0.1h-0.1L25,14.6c0,0-0.1,0-0.1,0c0,0,0,0,0,0c-0.1,0.1-0.1,0-0.2,0s-0.2,0-0.1,0.1c0.1,0.1,0,0.1,0,0.2
		c0,0.1-0.1,0.1-0.1,0.2c0-0.1-0.1-0.2-0.1-0.3l-0.1-0.1v-0.1h-0.2v-0.1l-0.3-0.2v-0.3l0.1-0.1l-0.1-0.2v-0.1l0.1-0.1l-0.1-0.1
		c-0.1,0-0.2,0-0.3,0c-0.1,0-0.2-0.1-0.1-0.1c0,0,0-0.2-0.1-0.2c-0.1-0.1-0.1-0.1-0.1-0.1c0,0-0.1,0-0.1,0.1s-0.2,0.2-0.2,0.2
		c0,0,0,0.1,0,0.1c0,0,0.1,0.1,0.1,0.1h-0.1l-0.2,0.1l0.1,0.1l0.1,0.1h0.2v0.1L23,14.3l-0.2,0.1c-0.1,0-0.1,0-0.2,0.1
		c0,0.1,0,0.2,0,0.2c0,0.1,0.1,0.2,0,0.2c-0.1,0-0.2-0.1-0.2-0.1c0-0.1-0.2-0.2-0.2-0.2c-0.1,0-0.2-0.1-0.3-0.1c0,0-0.2-0.2-0.2-0.1
		c0,0,0,0.1,0,0.1v0.4h-0.2l-0.1-0.3c0,0-0.1,0-0.1,0.1s-0.1,0.1-0.1,0.2c0,0.1,0,0.2-0.1,0.2c-0.1,0.1-0.1,0.1-0.1,0.2
		c0,0.1-0.1,0.2-0.2,0.1c0-0.1,0-0.1,0-0.2c0,0,0-0.1,0-0.1c-0.1-0.1,0-0.2,0-0.2s0-0.1-0.1,0c-0.1,0.1-0.1,0.2-0.2,0.1l-0.2-0.1
		c-0.1,0-0.1,0-0.2-0.2s0-0.2,0-0.3s-0.1-0.2-0.1,0c0,0.2,0,0.2,0,0.3S20.1,15,20.1,15s-0.1,0.1-0.1,0.2c0,0.1,0.2,0.1,0.1,0.2
		c-0.1,0.1-0.2,0.1-0.2,0.2c0,0.1-0.1,0.2-0.1,0.2c0,0.1,0.1,0.1,0.2,0.1c0,0.1-0.1,0.1-0.1,0.2c0,0.1,0,0.1,0,0.2
		c0,0,0.3-0.2,0.3,0c-0.1,0.1-0.1,0.2-0.2,0.3c0,0-0.2,0.1-0.1,0.1c0.1,0,0.1,0,0.2,0c0,0,0.2,0.1,0.2,0c0-0.1,0.1-0.2,0.2-0.2
		c0.1,0,0.1,0,0.1,0.1c0,0.1,0,0.2,0,0.3c0.1,0,0.1,0,0.2,0c0.1,0.1,0.1,0.1,0.1,0c0-0.1,0,0,0.2-0.1c0.2-0.1,0.1-0.2,0.1-0.2
		c0-0.1-0.1-0.2,0.1-0.1c0.2,0.1,0.2,0.1,0.2,0.1s0.2,0,0.1,0.1c-0.1,0.1-0.2,0.1-0.2,0.2c0,0.1,0,0.1,0,0.2c0,0.1-0.1,0.1,0,0.2
		c0.1,0,0.1,0.2,0.2,0.1c0.1,0,0.3-0.1,0.2,0c-0.1,0.1,0,0.3-0.2,0.3c-0.2,0-0.2,0-0.3-0.1c-0.1-0.1,0,0.2-0.2,0.2
		c-0.2-0.1,0-0.2-0.2-0.2c-0.1,0-0.2,0-0.3,0c-0.2,0-0.3,0.1-0.1,0.1s0.2,0.1,0.1,0.1c-0.1,0-0.4,0.1-0.3,0.2c0.1,0.1,0.2-0.1,0.3,0
		c0.1,0.1,0.1,0.2,0,0.3c-0.1,0.1,0,0.1-0.1,0.1c-0.1,0-0.2,0.1-0.1,0.1c0.1,0,0.2,0,0.3,0c0.1,0,0.2,0.1,0.2,0.1
		c0.1,0,0.2,0.1,0.1,0.2c-0.1,0.1-0.1,0.1,0,0.2s0,0.1,0,0.2s-0.1,0.2,0,0.2l0,0l-0.1,0.1l0,0c0,0-0.2,0.1-0.2,0.1s0.2,0.2,0.2,0.2
		h-0.1l0.1,0.2H21v0.2c0.1,0,0.2-0.1,0.3-0.1l0.1,0.1v0.1c0,0-0.2,0-0.2,0.1c0,0.1,0,0.1-0.1,0.2c-0.1,0.1,0,0.3,0,0.3L21,20.6v0.2
		l-0.1,0.1v0.3H21l0.1-0.1l0.1-0.1l0.1,0.1c0.1-0.1,0.1-0.2,0.2-0.2c0.1,0,0.2-0.1,0.3-0.1c0,0.1-0.1,0.1-0.1,0.2
		c0,0.1-0.1,0.1-0.1,0.1v0.2h-0.2l0.1,0.2v0.2l-0.1,0.1l0.1,0.1l0.3-0.1c0.1,0,0,0.3-0.1,0.4c-0.1,0.1,0,0.2,0.1,0.1
		c0.1,0,0.1,0,0.2,0.1c0,0.1,0.1,0.2,0.2,0.2c0.1,0,0.1-0.2,0.2-0.2s0,0,0.1-0.1c0.1-0.1,0.1,0,0.2,0s0.1-0.1,0.1-0.2
		c0.1-0.1,0.1,0,0.2,0h0.2c0.2,0,0-0.1,0-0.2s0.2,0,0.1-0.2c-0.1-0.2-0.1-0.1-0.3-0.1s0-0.1,0.1-0.1c0.1,0,0.1-0.1,0.3-0.1
		c0.1-0.1,0.2,0.1,0.4,0.1s0-0.1,0.3-0.3c0.3-0.2,0.1,0,0.3-0.1c0.2-0.1,0,0,0,0.1v0.3c0,0.1,0,0-0.1,0.2c0,0.1,0,0.2,0,0.3
		c-0.1,0.2-0.2,0.4-0.1,0.4c0.1,0,0.2,0,0.3,0c0.1,0,0.2,0,0.3,0c0.1,0.1-0.1,0.2-0.2,0.2c-0.2,0,0,0-0.1-0.1c-0.1-0.1,0,0-0.1,0.2
		c-0.1,0.2-0.1,0-0.1,0h-0.1c-0.1,0,0,0.1,0,0.3s0,0.1-0.1,0.3c-0.1,0.1-0.2,0-0.2,0h-0.2c-0.1,0,0-0.1-0.2-0.1
		c-0.2,0,0,0.1,0.1,0.3c0.1,0.2,0,0.1,0,0.4c0,0.2-0.2,0.4-0.2,0.4s-0.1,0.1-0.1,0.3c0,0.1,0,0,0.3,0c0.3,0,0.1,0,0.1-0.1
		c0-0.1,0-0.1,0.2-0.2s0.1,0,0.1,0.2c0,0.2,0,0.1,0,0.2c0,0.1-0.3,0.2-0.3,0.2c0,0.1,0,0.1,0,0.2c0,0.1,0,0.1,0,0.2
		c0,0.1,0.1,0,0.2-0.1c0.2-0.1,0,0,0.1,0.2s0,0.1,0,0.2s-0.2,0.2-0.1,0.2h0.2c0.2,0,0.1,0,0.1-0.1s0-0.1,0.1-0.1c0.1,0,0,0,0.2,0
		c0.2,0,0.1,0.1,0.1,0.1c0.1,0-0.1,0.3-0.1,0.3c0.1,0,0.2-0.1,0.2-0.1c0.1-0.1,0-0.1,0-0.2c0-0.1,0.1,0,0.2-0.1c0-0.1,0-0.1,0.1-0.1
		c0.1,0,0.1,0,0.3,0s0.1-0.1,0.2-0.1s0,0,0.1,0c0.1,0,0.1,0,0.1-0.2c0-0.2,0.1,0,0.3,0s0,0,0.1-0.1s0,0,0-0.1c0-0.1,0.1,0,0.1-0.1
		c0.1-0.1,0-0.1-0.1-0.2c-0.1-0.1,0.1-0.2,0.1-0.2s0.2,0,0.2,0.1c0,0.1,0,0.1,0,0.2c0,0.1,0,0.1,0,0.2c0,0.2,0-0.1,0.1-0.1
		c0.1,0,0.1,0,0.2,0s0.2-0.1,0.2,0c0,0.1-0.1,0.2-0.2,0.2c-0.1,0,0,0.1,0,0.2c0,0.1,0.1,0.1,0.1,0.2c0,0.1-0.1,0.3,0,0.3
		c0.1-0.1,0.2-0.1,0.3-0.1H27c0.1,0,0.1,0.1,0.2,0.1c0.1,0,0,0,0.2,0.2c0.2,0.2,0,0.1,0,0.2s0.1,0,0.2,0.2s0.1,0,0.2-0.2
		s-0.1-0.1,0-0.2c0.1,0,0.3,0,0.4,0c0.2,0,0,0,0,0.1s0,0.1,0.1,0.1c0.1,0,0.1,0,0.2,0h0.1c0,0,0.1,0,0.2,0h0.6c0.1,0,0.1,0,0.1-0.1
		c0-0.1,0,0,0.1,0c0.1,0,0.1,0,0.1-0.1s-0.2,0-0.2-0.1c0-0.1,0,0,0.2-0.2c0.2-0.2,0-0.1,0-0.2c0-0.1,0.1,0,0.2-0.1
		c0.1-0.1,0.1,0,0.1,0.1c0,0.1,0,0.1,0,0.2v0.2c0,0,0.1-0.2,0.2-0.3c0-0.1,0.1-0.1,0.2-0.1c0.1,0,0.1-0.1,0.1-0.1c0,0,0.1,0,0.1,0.1
		c0,0.1-0.3,0.4-0.3,0.5c0,0.1,0-0.1,0.1-0.1c0.1,0,0.1,0,0.2-0.1c0-0.1,0,0,0.2,0s0.1,0.1,0.1,0.1h0.1c0.1,0,0.1,0,0.2,0
		c0.1,0,0.1-0.1,0.2-0.1s0.1,0,0.1,0s0-0.1,0.1-0.2c0.1-0.1,0.1,0.1,0.2,0.1c0,0.1,0.1,0,0.1,0.1s-0.1,0.1-0.2,0.1
		c-0.1,0.1-0.1,0.2-0.2,0.3c-0.1,0.1,0,0-0.1,0.2s-0.1,0.2-0.2,0.2c-0.1,0.1,0,0.2,0.1,0.1h0.1c0.1-0.1,0-0.1,0.1-0.1
		c0.1,0,0,0,0.1,0c0.1,0,0.1-0.1,0.1-0.1c0,0,0.1,0,0.1,0c0.1,0-0.1,0.1-0.1,0.2c0,0.1,0,0.1,0.1,0.1c0.1,0,0,0,0.1,0.1
		c0.1,0.1,0,0,0.2,0s0-0.1,0-0.3v-0.1c0-0.1,0-0.1,0-0.2c0.1-0.1,0.1-0.2,0-0.3s0.1,0,0.2-0.1c0.1-0.1,0.1,0,0.1,0.1
		c0.1,0.1,0,0.1,0,0.2c0,0.2,0,0,0.3-0.1s0,0,0.1,0.2c0.1,0.2,0,0,0.2,0s0,0,0,0.2c0,0.2,0.1,0,0.2-0.1c0.1-0.1,0,0,0.1,0h0.2
		c0.1,0,0-0.1-0.1-0.4c-0.1-0.2,0,0,0.2-0.2c0.2-0.2,0-0.1,0.1-0.1v0.8c0,5.2-0.8,5.8-3.7,6.2l-1.1,0.1c-0.3,0.4-0.2,0.9,0.1,1.3
		c2.3-0.1,4.5-0.1,6.6-0.1c1.7,0,4.9,0.4,8.2,0.4c3.9,0.1,7.7-0.7,11.2-2.4c5.5-2.9,8.9-8.6,8.8-14.9C63.5,10.3,59.3,4.3,52.9,2.3z
		 M25.7,8.3c0,0,0.1-0.1,0.1-0.1C25.8,8.1,25.8,8.4,25.7,8.3L25.7,8.3z M26.1,10C26.1,10,26.2,10,26.1,10C26.2,10.1,26,9.9,26.1,10
		L26.1,10z M21.8,19.6L21.8,19.6C21.8,19.6,21.8,19.5,21.8,19.6L21.8,19.6z M22.9,16.5C22.9,16.5,23.1,16.5,22.9,16.5
		C22.8,16.6,23,16.4,22.9,16.5L22.9,16.5z M22.7,16v0.1h-0.1C22.6,16.1,22.8,15.7,22.7,16z M22.5,15.6
		C22.5,15.6,22.6,15.6,22.5,15.6C22.6,15.7,22.5,15.6,22.5,15.6z M22.3,18.3C22.3,18.3,22.3,18.3,22.3,18.3
		C22.2,18.3,22.2,18.3,22.3,18.3C22.3,18.2,22.3,18.2,22.3,18.3L22.3,18.3z M22,15.9C22.1,15.9,21.9,16,22,15.9
		C22,15.8,22,15.8,22,15.9L22,15.9z M22,20.2c-0.2,0,0-0.2,0.1-0.2C22.4,20.1,22.2,20.1,22,20.2L22,20.2z M22.4,18.7
		c-0.4,0.3-0.4-0.1,0-0.2c0.4,0.1,0.7-0.4,0.7-0.1C23.1,18.7,22.7,18.5,22.4,18.7L22.4,18.7z M23.8,16.3
		C23.5,16.3,23.9,16.1,23.8,16.3C23.9,16.3,23.9,16.3,23.8,16.3L23.8,16.3z M23.9,15.7l0-0.1L23.9,15.7L23.9,15.7z M24.1,17.2
		c0-0.1,0.1-0.2,0.1-0.3C24.3,17,24.2,17.1,24.1,17.2L24.1,17.2z M24.8,22.9L24.8,22.9C24.8,22.9,24.8,22.7,24.8,22.9L24.8,22.9z
		 M24.5,23.9c-0.1,0,0-0.1,0.1-0.1C24.6,23.9,24.5,23.9,24.5,23.9z M24.7,23.4c-0.1,0-0.1-0.1-0.3,0c0-0.1,0.2-0.2,0.2-0.2
		c0,0,0.1,0,0.2,0C24.8,23.2,24.7,23.3,24.7,23.4L24.7,23.4z M25.3,24.2L25.3,24.2C25.3,24.2,25.4,24.1,25.3,24.2L25.3,24.2z
		 M25.4,19.7v-0.1C25.4,19.6,25.5,19.6,25.4,19.7L25.4,19.7z M25.6,19C25.6,19,25.6,19,25.6,19C25.6,19,25.5,19,25.6,19L25.6,19z
		 M30,12.3c-0.2,0.4-0.2,0-0.3-0.2C29.7,11.9,29.9,12.2,30,12.3L30,12.3z M29.7,4.2c0,0,0.2,0,0.2,0.1C29.8,4.4,29.6,4.2,29.7,4.2
		L29.7,4.2z M29.5,4.3C29.5,4.3,29.4,4.3,29.5,4.3C29.4,4.2,29.5,4.2,29.5,4.3L29.5,4.3z M29.2,4.4v0.1C29.2,4.6,29.1,4.4,29.2,4.4
		L29.2,4.4z M28.7,4.9c-0.2,0,0-0.3,0.3,0C29,5,28.8,4.9,28.7,4.9z M29,6L29,6C29,6,29,6,29,6L29,6z M28.5,7.3L28.5,7.3
		C28.5,7.3,28.5,7.2,28.5,7.3L28.5,7.3z M28,9.4c0,0,0-0.1-0.1-0.1C27.9,9.3,28,9.4,28,9.4L28,9.4z M27.7,8.4
		C27.7,8.4,27.8,8.4,27.7,8.4C27.7,8.5,27.7,8.4,27.7,8.4z M27.7,9.9h-0.3C27.3,9.5,28,9.8,27.7,9.9L27.7,9.9z M27.2,10.3
		c0,0,0,0.2,0.1,0.2s0.2,0.1,0.1,0.2c-0.2,0-0.3-0.1-0.5-0.1C26.9,10.3,27.1,10.2,27.2,10.3L27.2,10.3z M26.7,11.1
		c0.2,0,0-0.2,0.2-0.2C27.4,11.1,26.8,11.8,26.7,11.1L26.7,11.1z M26.8,15.2c0.1,0,0.1-0.1,0.2-0.2c0.2,0.5,0.3,0.1,0.4-0.2
		c0.1,0.1-0.3,1,0.2,0.4c0.1,0.2,0,0.5-0.2,0.7c0-0.1-0.2-0.2-0.2-0.3c-0.3,0-0.4,0.1-0.5-0.2C26.7,15.2,26.6,15.1,26.8,15.2
		L26.8,15.2z M27.5,20.2C27.4,20.2,27.5,20.1,27.5,20.2C27.5,20.1,27.6,20.1,27.5,20.2L27.5,20.2z M27.3,20.2
		c-0.2,0.1-0.4,0.1-0.6,0.1c-0.1,0,0-0.1,0-0.1C27.1,19.9,27.1,19.9,27.3,20.2L27.3,20.2z M26.8,16.4c0.1-0.2,0.1,0,0.2-0.2v0.1
		C27,16.3,26.9,16.3,26.8,16.4L26.8,16.4z M27.2,16.9h0.1C27.3,16.9,27.2,16.9,27.2,16.9L27.2,16.9z M27.2,15.9L27.2,15.9L27.2,15.9
		L27.2,15.9z M26.8,23.3c-0.1,0-0.2,0-0.3,0C26.6,23.2,26.7,23.1,26.8,23.3L26.8,23.3z M26,23.7v-0.1C26,23.6,26.1,23.6,26,23.7
		L26,23.7z M25.8,20.3v-0.2c0,0,0.1,0.2,0.2,0c0-0.3,0.2,0.1,0.4,0C26.9,20.3,26,20.3,25.8,20.3z M26.5,24.4c-0.1,0-0.1-0.1,0-0.2
		c0.1-0.1,0.3,0.2,0.5,0.1C27.1,24.2,26.5,24.5,26.5,24.4L26.5,24.4z M27,22.1c0-0.1-0.3,0-0.2-0.2c0-0.2,0.3,0.1,0.4,0.2
		C27.2,22.1,27,22.2,27,22.1L27,22.1z M27.1,21.7C27.1,21.6,27.2,21.7,27.1,21.7C27.2,21.8,27.1,21.7,27.1,21.7L27.1,21.7z
		 M27.4,24.3c-0.3,0-0.2,0,0-0.2c0.2-0.2,0.1,0,0.3-0.1c0.1-0.1,0,0.2,0.1,0.2s0.2-0.1,0.3-0.1C27.9,24.3,27.6,24.3,27.4,24.3
		L27.4,24.3z M28,7.4c0-0.3,0.5,0.2,0.4-0.1c0.2,0.2,0.4,0.4,0.4,0c0.1,0,0.1-0.2,0.2-0.3s0.2,0,0.1-0.2c-0.3-0.4,0.1-0.2,0.2-0.2
		s0.1,0.2,0.2,0.2c0.1,0,0,0.1,0,0.1c-0.3,0.2,0,0.3-0.4,0.4c0.1,0.4-0.3,0.3-0.1,0.5s-0.2,0.2,0,0.2c0.1,0.3-0.3-0.1-0.3-0.1
		s0,0.1-0.3,0c0,0-0.1-0.1-0.2,0c0,0,0,0,0,0c-0.1,0-0.2-0.2,0-0.2C28.5,7.4,28.1,7.4,28,7.4L28,7.4z M28.9,15.8
		C28.9,15.8,29,15.9,28.9,15.8C28.8,16,28.8,15.9,28.9,15.8L28.9,15.8z M28.8,16.4c-0.1,0-0.2,0-0.3-0.2c0,0,0-0.1,0-0.1
		C28.5,16,29.1,16.4,28.8,16.4L28.8,16.4z M28.9,12.8c0-0.2-0.2-0.3-0.3-0.4c-0.1-0.1-0.1-0.3,0.1,0c0.4,0-0.2-0.6-0.3-0.6
		c-0.2,0,0-0.2,0.1,0c0.1,0.2,0.3,0,0.5,0c0.1,0,0.1,0.2,0.1,0.2c0,0.1,0,0.3-0.1,0.3c-0.1,0.1,0.3,0.2,0.3,0.4c0,0.2,0,0.2-0.1,0.1
		C29,12.8,28.9,12.9,28.9,12.8L28.9,12.8z M28.6,9.2c-0.3,0.1-0.2-0.2-0.2-0.3c0-0.2,0.2,0,0.3,0c-0.2,0.2,0,0.4-0.1,0.5L28.6,9.2z
		 M29.2,9C29.2,9,29.3,9.1,29.2,9c-0.1,0.1-0.1,0.2,0,0.1V9z M29.3,20.2c0.2,0,0.5,0.1,0.1,0.1c-0.4,0-0.4,0.1-0.1,0V20.2z
		 M29.3,16.9v-0.1c0,0,0.1,0.2,0,0.2L29.3,16.9z M28.3,9c0,0.1-0.2,0-0.1-0.1c0.1,0,0.1,0.1,0.2,0.2L28.3,9z M28.4,14.4
		c-0.1,0-0.1,0-0.2-0.1s0-0.1,0-0.2c-0.1-0.3,0.3,0.2,0.2-0.1c-0.1-0.1,0-0.1,0.1-0.2c0.3,0.1,0,0.1,0.1,0.3
		c0.1,0.1,0.1-0.1,0.2-0.1c0.3,0.2-0.5,0.2-0.2,0.4c0,0-0.1,0-0.1,0.1c0,0.1,0,0.1-0.1,0L28.4,14.4z M28.7,23.4c0,0,0.1-0.1,0.1-0.2
		C29.1,23.5,28.9,23.7,28.7,23.4z M30,20.8c-0.4-0.2-0.4,0.3-0.8,0.3c-0.1,0-0.1-0.1-0.1-0.1c0,0-0.1,0-0.1-0.1
		c0-0.1-0.3-0.1-0.4-0.2s-0.3-0.2-0.1-0.2c0.3,0,0.6,0.1,0.9,0.1C29.8,20.6,30.3,20.3,30,20.8L30,20.8z M31.2,6.2
		C31.2,6.1,31.1,6,31.1,6c0.7-0.1-0.1,0.7,0.4,0.5c0.3,0.2-0.3,0.3-0.4-0.3C31.1,6.3,31.2,6.3,31.2,6.2L31.2,6.2z M31.3,10
		c0,0-0.1-0.1-0.2-0.1l0,0c0,0,0-0.1,0.1-0.1c0.1,0,0.1,0,0.1,0C31.4,9.8,31.3,10,31.3,10L31.3,10z M31.1,9.9
		C31.1,9.9,31,10,31.1,9.9C31,9.8,31.1,9.9,31.1,9.9z M30.9,5.7C31,5.7,31,5.9,31,5.9C31.1,5.9,30.8,5.8,30.9,5.7L30.9,5.7z
		 M31,14.4c0-0.2,0.1,0,0.3-0.2c0.1-0.2,0.3,0.3,0.1,0.3C31.3,14.2,31,14.6,31,14.4z M31.7,18.2h-0.3c-0.1-0.2-0.1-0.2-0.3-0.1
		c0-0.1,0.1-0.4,0-0.5c0.1-0.1-0.1-0.1,0.1-0.4c0,0.1,0.1,0.1,0.2,0.1c0.1,0-0.1,0.1,0,0.2c0.1,0.1-0.2,0.1-0.1,0.2s0.2-0.1,0.3-0.1
		c0.3,0.2-0.4,0.2,0.2,0.5C31.9,18.1,31.8,18.3,31.7,18.2L31.7,18.2z M32.7,14.2L32.7,14.2C32.7,14.2,32.7,14.2,32.7,14.2L32.7,14.2
		z M31.9,6.1c0-0.1,0.1,0,0.2,0.1C32.1,6.4,31.9,6.3,31.9,6.1L31.9,6.1z M32.1,20.3c0-0.1,0-0.1-0.1-0.1h0.1
		C32.2,20.2,31.9,20.6,32.1,20.3z M32.3,20.1L32.3,20.1C32.3,20.1,32.3,20.1,32.3,20.1L32.3,20.1z M32.3,14.6c0,0,0-0.1,0.1-0.1
		s0-0.1,0.2-0.1c0.2-0.2,0.1,0.2,0.4,0.2c-0.1,0.4-0.4,0.2-0.4,0.4c-0.1,0-0.1-0.3-0.1-0.3C32.4,14.5,32.3,14.5,32.3,14.6L32.3,14.6
		z M32.8,20.2L32.8,20.2C32.7,20.2,32.8,20.2,32.8,20.2L32.8,20.2z M33.2,21.4c-0.1-0.1-0.2-0.3-0.3-0.1c0,0.5-0.5-0.2-0.4-0.2
		s-0.1-0.3-0.1-0.4c0.3-0.3,0.1,0.2,0.3,0.3c0,0,0.1,0.1,0.1,0.1c0,0,0,0,0.1-0.1C33.2,20.8,33,21.3,33.2,21.4
		C33.3,21.4,33.3,21.5,33.2,21.4L33.2,21.4z M33.9,7.8L33.9,7.8C33.9,7.9,33.9,7.9,33.9,7.8L33.9,7.8z M36.1,8.3c0,0-0.1,0-0.1,0
		C36,8.2,36.2,8.2,36.1,8.3L36.1,8.3z M35.8,22.8l-0.1,0.2C35.7,22.9,35.7,22.7,35.8,22.8L35.8,22.8z M35.6,24.1L35.6,24.1
		C35.7,24.1,35.6,24.2,35.6,24.1L35.6,24.1z M34.9,8.4L34.9,8.4C34.8,8.4,34.8,8.4,34.9,8.4z M34.3,4.3c0-0.1,0-0.2,0.1-0.2
		c0.1-0.1,0-0.3,0.2-0.3c0.2,0,0-0.2,0.2-0.1c0.2,0.3,0.1,0.1,0,0.3c-0.1,0.3,0.1,0.7-0.3,0.6c-0.1-0.1-0.3,0-0.3-0.1
		C34.2,4.2,34.2,4.3,34.3,4.3z M34.5,8C34.6,7.7,34.7,8.1,34.5,8C34.3,7.9,34.4,8,34.5,8z M34.5,7.5L34.5,7.5
		C34.6,7.5,34.4,7.6,34.5,7.5L34.5,7.5z M34.3,9.9C34.3,9.9,34.3,9.8,34.3,9.9C34.4,10,34.3,9.9,34.3,9.9L34.3,9.9z M34.3,10.5h-0.2
		c0.2-0.1,0.1-0.3,0.3-0.3c0.2,0,0.6-0.3,0.7-0.1C34.9,10.4,34.7,10.1,34.3,10.5L34.3,10.5z M36.6,27c0,2.8-0.2,4.2-0.8,4.9
		c-0.1,0-0.1-0.1-0.2-0.2c-0.9-1.2-0.7-2.7-0.7-5.4v-0.7c0-0.1,0,0,0.2,0s0,0.1,0.2,0.3s0,0,0.2-0.2s0.1,0,0.2,0s0-0.1-0.2-0.2
		s0,0,0.2,0s0,0,0.1-0.1s-0.1-0.1,0.1-0.1s0.1,0.1,0.1,0.2s0.1,0,0.2,0s0,0,0-0.1s0.2,0.1,0.4,0h0.1L36.6,27z M36.9,22.4
		c-0.1,0-0.3,0-0.3-0.1C36.6,22.2,37,22.4,36.9,22.4L36.9,22.4z M36.7,10.3c0-0.3,0.2-0.3,0.3-0.1C36.9,10.3,36.7,10.5,36.7,10.3z
		 M37.5,1.8c0,0,0.1-0.2,0.2-0.1C37.8,1.7,37.6,1.9,37.5,1.8z M39.4,3.5C39.4,3.5,39.3,3.6,39.4,3.5C39.3,3.6,39.4,3.4,39.4,3.5z
		 M39.4,13.2c0,0.1,0.2,0,0.3,0s0.1,0.3,0,0.5s0.2,0,0.2,0.1c0,0.4-0.5-0.1-0.5-0.3C39.6,13.8,39.6,13.4,39.4,13.2
		c-0.1,0-0.2-0.1-0.2-0.2C39.2,12.9,39.3,13.2,39.4,13.2L39.4,13.2z M40.3,9.3c0,0.1,0.3,0.1,0.2,0.2c-0.1,0.1-0.3,0.1-0.3,0
		C40.3,9.4,40.3,9.3,40.3,9.3L40.3,9.3z M41.5,9c0.1,0,0.4,0.1,0.4,0.2c0,0.2-0.1,0.4-0.3,0.4c0,0,0,0,0,0c-0.3,0-0.1-0.2-0.2-0.3
		S41.7,9.3,41.5,9L41.5,9z M43.1,6c-0.1,0.1-0.2,0-0.3,0.2c-0.1,0.2,0,0-0.1,0s0,0.1-0.1,0c-0.1-0.1,0.1-0.1,0-0.2s-0.2,0-0.3,0
		s0.2-0.2,0.2-0.2c0.1-0.1,0.3-0.4,0.3,0S43.2,5.7,43.1,6z M43.3,13.2c0.1,0.1-0.1,0.1-0.2,0.1c-0.1,0-0.1,0,0-0.1s0-0.1-0.1-0.1
		c-0.1,0,0-0.3,0.1-0.3c0.1,0,0.1,0,0.1,0.2C43.3,13.1,43.3,13,43.3,13.2L43.3,13.2z M43.3,20.8c-0.2,0-0.2,0-0.2,0.2
		c0,0.2,0,0.1,0,0.2s-0.1,0-0.2,0s-0.2-0.2-0.4-0.1s-0.1-0.2,0-0.2S43,21,43,20.8s-0.1-0.1,0.1-0.2c0.2-0.1,0.1,0.1,0.2,0
		c0.1-0.1-0.2-0.2,0.1-0.2s0,0.1,0,0.1C43.3,20.6,43.3,20.6,43.3,20.8L43.3,20.8z M43.2,24.2c0-0.1,0-0.2-0.2-0.1
		C43.1,24,43.3,24.1,43.2,24.2L43.2,24.2z M42.4,17C42.3,17,42.5,16.9,42.4,17C42.5,17,42.4,16.9,42.4,17L42.4,17z M42.7,17.5
		C42.7,17.5,42.6,17.5,42.7,17.5c-0.1-0.1,0-0.2,0-0.2C42.9,17.3,42.9,17.5,42.7,17.5L42.7,17.5z M42.9,18c0,0.1-0.1,0-0.1,0H42.9
		L42.9,18z M42.4,8.5v0.2c0,0.1,0,0.1-0.1,0.1s-0.5-0.1-0.5-0.3C42.1,8.1,42,8.4,42.4,8.5L42.4,8.5z M41.3,6.7
		c0.1-0.1,0.2-0.1,0.2,0C41.6,6.8,41.3,6.6,41.3,6.7L41.3,6.7z M41.4,12.7c0,0.1,0,0.2,0.1,0.2c0.1,0,0.3,0.2,0.2,0.2
		s-0.3,0.1-0.3,0c0-0.1-0.2-0.2-0.3-0.2c-0.1,0,0-0.1,0-0.1S41.2,12.6,41.4,12.7L41.4,12.7z M41.7,19.3L41.7,19.3
		C41.7,19.3,41.7,19.2,41.7,19.3L41.7,19.3z M41.7,15.9C41.8,15.9,41.8,15.9,41.7,15.9C41.7,16,41.7,15.9,41.7,15.9L41.7,15.9z
		 M41.8,23.9c0,0,0,0.2-0.1,0.2C41.7,24.1,41.6,23.8,41.8,23.9L41.8,23.9z M41.4,14.3c-0.1,0,0,0.2-0.1,0.2c-0.3-0.1-1-0.2-0.3-0.4
		c0,0,0.1,0,0.1,0C41,14.4,41.3,14.2,41.4,14.3L41.4,14.3z M41,15.1c-0.5,0.6-0.3,0.4-0.6,0c0.3-0.1,0.1-0.2,0-0.4l0,0
		C40.6,14.8,40.8,15,41,15.1L41,15.1z M41,16.7c0,0-0.2,0-0.1-0.1C41,16.5,41,16.7,41,16.7L41,16.7z M40.4,13.5h0.2
		C40.6,13.5,40.3,13.7,40.4,13.5L40.4,13.5z M40.3,23.8c-0.1,0-0.1-0.1-0.2-0.2C40.1,23.5,40.4,23.8,40.3,23.8L40.3,23.8z M40,9.3
		c-0.1,0.1-0.2,0-0.1-0.1C39.9,9.2,40,9.2,40,9.3c0-0.1,0,0,0.2-0.1C40.2,9.3,40.1,9.2,40,9.3z M39.7,17.8c0,0-0.2-0.1-0.1-0.1
		C39.7,17.7,39.9,17.8,39.7,17.8z M39.1,3.4C39.1,3.3,39.1,3.3,39.1,3.4C39.2,3.3,39.2,3.3,39.1,3.4C39.2,3.4,39.2,3.4,39.1,3.4
		l0.1,0.2C39.2,3.5,39.1,3.5,39.1,3.4C39.1,3.3,39.1,3.4,39.1,3.4z M39.1,19.2c0,0.2,0.2,0.1,0.3,0.1s0,0.4,0.3,0.4
		c0,0.3-0.2,0.1-0.3,0.2c-0.2,0.4-0.1,0.1-0.4,0.2c0-0.1-0.1-0.2-0.1-0.3C39.1,19.4,38.6,19.7,39.1,19.2L39.1,19.2z M38.7,13.7
		C38.8,13.7,38.8,13.7,38.7,13.7C38.6,13.8,38.7,13.7,38.7,13.7L38.7,13.7z M44,32.7c-2.6,0-3.7-0.8-4.6-2c-0.8-1.3-1.1-2.9-1-4.4
		c0.1-0.1,0,0.1,0,0.2c0,0.1,0.1,0,0.2-0.1c0.2-0.1,0,0.1-0.1,0.3c-0.1,0.2,0,0.2,0.1,0.1c0.1-0.1,0.1,0,0.2-0.1
		c0.1-0.1,0-0.1,0-0.2s0.1,0,0.1-0.1s0,0,0-0.1c0-0.1,0,0,0.1-0.2s-0.1-0.3-0.1-0.4s0.2,0,0.2,0s0,0,0.2,0.1c0.7-0.7,0.8,0.1,1-0.6
		c0-0.1,0.3,0.1,0.4,0.1s0.3,0,0.2-0.1c-0.1-0.1-0.1-0.2-0.2-0.3l0,0c0.1,0,0.2,0.1,0.3,0.1c0.1,0-0.1,0.1-0.1,0.1
		c0,0,0.1,0.1,0.1,0.1l0.2,0.1c0,0,0,0.1,0,0.1c0,0.1,0.1,0.1,0.2,0.1c0.1,0,0.2,0,0.3,0c0.1,0,0,0.1,0.1,0.2c0,0.1,0,0.1,0,0.2
		c0.2,0.1,0.3,0,0.4,0s0,0,0.1,0.1s0.3,0,0.2-0.1c-0.1-0.1-0.1,0-0.2-0.1s-0.2-0.1-0.2-0.1c0,0,0,0,0-0.1s0,0,0.2,0s0.1,0,0-0.1
		c-0.1-0.1-0.1-0.1-0.2-0.2s-0.1,0-0.1-0.1c0-0.1-0.1,0-0.1,0H42c0.2,0,0.1,0,0.2-0.1c0-0.1,0.1-0.1,0.2,0c0.1,0.1,0,0.2,0.2,0.1
		c0.2-0.1,0-0.1,0.1-0.1c0.1,0,0,0,0.2,0c0.1,0,0.2,0.1,0.3,0.2c0,0,0.1,0,0.1,0.2c0,0.2,0.1,0.1,0.2,0.1h0.3c0,0-0.1-0.1-0.2-0.3
		c-0.1-0.3,0,0,0.1-0.1s0.1,0,0.1,0.2s0.1,0.2,0.1,0s0.1,0,0.2-0.1s0-0.2,0-0.2c0.1,0,0.2,0,0.3,0c0.2,0,0.1,0,0.2,0.1
		c0.1,0.1,0,0.1,0.1,0.2l0.1,0.1c0,0.1,0.1,0,0.3,0h0.1l0.1,0.2c0,0.1,0,0.1,0.1,0c0.1-0.1,0-0.1,0.1-0.2c0.1-0.1,0.1,0,0.2,0.2
		c0,0.2,0,0.1,0.2,0.2c0.2,0.1,0.2,0,0.3,0s0.1,0.1,0.2,0.1c0.1,0,0-0.1,0-0.2c0-0.1,0-0.2,0-0.3c0-0.1-0.3-0.1-0.4-0.1
		s-0.2,0-0.3-0.2c0-0.2,0-0.1,0.1,0c0.1,0.1,0,0,0.2,0c0.2,0,0-0.1,0-0.3c0-0.2,0.1,0,0.2,0.1c0.1,0.1,0,0,0.1,0.1
		c0.1,0.1,0.2,0.1,0.3,0.2c0.1,0.1,0.1,0.4,0.1,0.3c0-0.1,0.1-0.1,0.2-0.2c0.1-0.1,0,0,0-0.1c0-0.1,0-0.1-0.2-0.2
		c-0.2-0.1,0-0.1,0.1-0.2c0.1-0.1,0.1,0,0.2,0s0.1,0,0.2-0.1c0.2-0.1,0.1-0.1,0.2-0.1c0.1,0,0.1,0,0.1-0.2c0-0.2-0.1-0.1,0-0.2
		c0.1,0,0.1,0,0.3,0.1c0.2,0.1,0.1,0,0.2,0.1c0,0.1,0.1,0,0.3,0c0.3,0,0.2,0,0.2,0.1c0.1-0.1,0,0-0.1-0.1s0-0.1,0.2-0.2
		c0.2-0.1,0.1-0.1,0.2-0.3s0,0,0.1,0s0,0,0-0.1c0-0.1,0-0.1,0.1-0.2c0.1-0.1,0.1,0,0.1,0.1c0,0.1,0.2,0.2,0.2,0.1
		c0-0.1,0.1,0.1,0.2,0.2c0,0,0.1,0,0.2,0c0,0,0-0.1,0-0.1c0-0.1,0.1-0.2,0-0.2c-0.1-0.1-0.1-0.2,0-0.3c0,0,0,0,0,0
		c0.1-0.1-0.2-0.1-0.2-0.2c-0.1-0.1,0-0.2,0-0.3c0-0.1,0,0,0.1,0c0.1,0,0,0,0-0.1c0-0.1-0.1-0.1-0.2-0.2c-0.1,0,0-0.2,0.2-0.3
		c0.2-0.2,0.2,0,0.1,0.2c-0.1,0.2,0,0.2,0.1,0.2s0.1-0.2,0.3-0.2c0.2,0,0-0.1,0-0.2c0-0.1,0-0.2,0.2-0.1c0.2,0,0.1,0.1,0.2,0.2
		c0.1,0.1,0.1,0,0.1-0.2s0-0.1,0.1-0.1c0.1,0,0.1,0.1,0.1,0s0-0.1,0-0.3c0-0.2,0.1,0.1,0.2,0.1s0-0.1,0-0.2s-0.1-0.1,0-0.2
		s0-0.1,0-0.2c0-0.1,0-0.1,0.1-0.2c0.1,0,0.2,0,0.2-0.1c0.1,0,0.3,0.2,0.4,0.1c0.2,0,0-0.1-0.1-0.1c-0.1,0-0.1-0.1-0.2-0.2
		c-0.1-0.1-0.1-0.2,0-0.3c0.1-0.1,0.2,0.1,0.3,0s-0.2-0.2-0.3-0.2c-0.1,0-0.1-0.1,0.1-0.1c0.2,0,0,0-0.1-0.1c-0.1-0.1-0.1,0-0.3,0
		c-0.2,0-0.1,0.1-0.2,0.2c-0.1,0.1-0.1-0.3-0.2-0.1c-0.1,0.2-0.2,0.1-0.3,0.1c-0.2,0,0-0.2-0.2-0.3C50,19.9,50.3,20,50.4,20
		c0.1,0,0.1,0,0.2-0.1c0.1-0.1,0-0.1,0-0.2v-0.2c0-0.1-0.1-0.1-0.2-0.2c-0.1-0.1,0-0.1,0.1-0.1s0.1,0,0.2-0.1c0.1-0.1,0.1,0,0.1,0.1
		c0,0.1,0,0.1,0.1,0.2s0.1,0,0.2,0.1c0,0.1,0.1,0.1,0.1,0c0.1,0,0.1,0,0.2,0c0-0.1,0-0.2,0-0.3v-0.1c0.1,0,0.1,0.1,0.2,0.2
		c0,0.1,0.2,0,0.2,0c0.1,0,0.1,0,0.2,0c0.1,0,0-0.1-0.1-0.1c-0.1-0.1-0.2-0.2-0.2-0.3c-0.1-0.1,0.3,0,0.3,0c0-0.1,0-0.1,0-0.2
		c0-0.1-0.1-0.1-0.1-0.2c0,0,0.1,0,0.2,0c0-0.1,0-0.2-0.1-0.2c-0.1-0.1-0.1-0.1-0.2-0.2c-0.1-0.1,0.1-0.1,0.1-0.2
		c0-0.1,0-0.1-0.1-0.2l-0.2-0.3c-0.1-0.1,0-0.1,0-0.3s-0.1-0.1-0.1,0c0,0.1,0,0.1,0,0.3c0,0.2,0,0.2-0.2,0.2s-0.1,0-0.2,0.1
		c-0.1,0.1-0.1,0-0.2-0.1s0-0.1-0.1,0L50.8,18c-0.1,0.2,0,0,0,0.1v0.2c0,0.1-0.1,0-0.2-0.1c-0.1-0.1-0.1,0-0.2,0s0,0.1-0.1,0.3
		s-0.1,0-0.1-0.2c0-0.1-0.1-0.2-0.1-0.3c-0.1-0.2,0-0.2-0.2-0.1c-0.2,0,0,0.1-0.1,0.3c-0.1,0.2-0.1-0.1-0.2-0.2s0-0.1,0-0.2
		c0-0.1,0-0.1-0.1-0.2c-0.1-0.2-0.1-0.2,0-0.2c0-0.1,0-0.2,0-0.2c0-0.1-0.2-0.1-0.4-0.2s0,0,0.2-0.1c0.2-0.1,0-0.1-0.1-0.2
		c0-0.2-0.1-0.3-0.1-0.5c0-0.1-0.1-0.1-0.2-0.1c-0.1,0-0.2-0.2-0.3-0.3c0,0-0.1-0.1-0.1-0.2c0-0.1,0-0.2-0.1-0.3
		c-0.1-0.2,0-0.2,0-0.2c0,0,0.1,0,0.1,0c0,0.1,0.1,0.2,0.1,0.3c0.1,0.2,0,0,0.2,0.1c0.2,0.1,0,0,0.1,0.2c0.1,0.2,0.1,0.1,0.1,0
		c0-0.1,0,0,0-0.1c0-0.1,0-0.1,0.1-0.2c0.1-0.1,0-0.1-0.1-0.3c-0.1-0.2,0-0.1-0.1-0.2s0-0.1,0.2-0.1l0,0V15l0,0v0.2
		c0,0.2,0,0.1,0.1,0s0.1,0,0.1,0c0,0,0.1,0.1,0.1,0c0,0,0,0,0,0v-0.3c0-0.2-0.1-0.1-0.1-0.2c0-0.1,0.1-0.1,0.2-0.2
		c0-0.1,0,0,0.2-0.1c0.1,0,0.2,0,0.3,0c0.2,0,0-0.1,0-0.2s-0.1-0.1-0.2-0.3c-0.1-0.2-0.2,0-0.3-0.1c-0.1-0.1,0-0.2-0.1-0.1
		c-0.1,0.1-0.1,0-0.2-0.2c-0.1-0.2-0.2,0-0.3-0.2s0-0.2,0.1-0.2s0.1-0.1,0.2-0.2c0.1-0.2,0.1-0.1,0.1-0.2c0-0.2-0.1-0.3-0.3-0.4
		c-0.1-0.1-0.1-0.1,0-0.3c0.1-0.2,0-0.1-0.1-0.1c-0.1,0-0.1,0.2-0.2,0.1c-0.1-0.1,0-0.1-0.1-0.2c-0.1,0-0.2,0-0.3,0
		c0-0.1-0.1-0.1-0.2-0.1c-0.1,0-0.2,0-0.3,0s0-0.1,0-0.2s-0.1-0.2-0.2-0.2c-0.1-0.1-0.1-0.2-0.1-0.2c0-0.1,0,0,0.2,0
		c0.2,0,0.2,0.1,0.2-0.1c-0.1-0.2-0.1-0.2,0.1-0.2c0.2,0,0.1-0.1,0.1-0.3s-0.1,0-0.2-0.1c-0.1-0.1,0-0.3-0.1-0.2
		c-0.1,0.1-0.1,0.1-0.2,0s0,0.1-0.2,0.3c-0.2,0.2-0.1,0.1-0.2,0c-0.1-0.1-0.1,0-0.2,0c-0.1,0-0.2,0-0.2-0.1c0-0.1,0.1-0.1,0.2-0.2
		c0-0.1,0-0.1-0.2-0.2c-0.2-0.1-0.2-0.2-0.1-0.3C47,9.4,47,9.8,47,9.8c0-0.1,0-0.2,0.1-0.2c0.1,0,0.1,0,0.1-0.2V9.3
		c0,0,0.1-0.1,0.1-0.2c0-0.1,0,0,0.2,0c0.2,0,0.1,0.1,0.2,0c0.1-0.1,0.1,0,0-0.2c-0.1-0.2,0,0,0-0.1V8.7c0-0.1-0.1-0.1-0.2-0.2
		c0,0,0-0.2,0-0.2h0.3c0.3,0,0.2,0.1,0.3,0.1c0.2,0,0,0,0-0.2s-0.1-0.2,0-0.3c0.1-0.1,0.3,0,0.2-0.1c0-0.1,0.1-0.1,0-0.2
		c-0.1-0.1-0.2,0-0.2-0.2c0-0.2-0.2,0.1-0.3,0c-0.2-0.1-0.1,0-0.2,0.2c0,0.1-0.2,0.2-0.3,0.2c0,0,0,0,0,0c-0.2,0,0-0.1,0.1-0.2
		s0-0.1-0.2-0.2c-0.2-0.1-0.3,0-0.6-0.1c-0.3-0.1,0-0.1,0.2-0.1s0.1-0.1,0.3-0.2s0.4,0.2,0.4,0.2c0.1-0.1,0.1-0.2,0-0.2
		c0-0.1-0.1-0.2-0.2-0.2c-0.1,0-0.1-0.2,0-0.4c0.1-0.1-0.1-0.3-0.3-0.3s0-0.2-0.2-0.2s-0.1-0.1-0.3-0.1c-0.1,0-0.2,0-0.4,0.1
		c-0.2,0.1-0.1,0-0.2,0s-0.1,0-0.2,0.3c-0.1,0.3-0.2,0-0.2,0.1c0,0.1-0.2,0.3-0.3,0.3c-0.1,0-0.4-0.2-0.5-0.3
		c-0.1-0.1,0.3,0.1,0.4,0.1c0.2,0,0.1-0.2,0-0.3s0,0,0-0.1c0.1-0.1,0.1-0.2,0.1-0.3c0.1-0.3-0.3-0.2-0.3-0.2c0,0,0-0.1,0-0.2
		c0-0.1,0.2-0.1,0.3-0.1s0.1,0,0.3-0.2c0.2-0.2,0.2,0.1,0.3,0.2s0.1,0,0.3,0S46,5.1,46,5c0-0.1,0.2-0.2,0.3-0.3c0.1-0.1,0-0.2,0-0.3
		c0,0-0.1,0-0.1,0c-0.2,0-0.2,0-0.2-0.1s-0.3,0-0.1-0.2c0.2-0.2-0.1,0-0.2-0.1c-0.1-0.1-0.1-0.2-0.2-0.3s-0.2,0.1-0.4,0.1
		c-0.2,0-0.1-0.2-0.1-0.4c0-0.2-0.2-0.1-0.2,0c0,0.1-0.2,0-0.3,0s-0.1,0.1-0.2,0.2c-0.1,0.1-0.1,0.1-0.1,0.2c-0.1,0.2,0,0,0.3,0
		s0,0.1-0.1,0.2c-0.1,0.1-0.3,0-0.5,0h-0.2c-0.1,0-0.1,0-0.2-0.2c-0.1-0.2,0,0-0.1,0.2s-0.1,0-0.3,0c-0.1,0-0.3,0-0.3,0.2
		c0,0,0,0,0,0c0,0.1,0.1,0.1,0.2,0.2c0,0.1,0.1,0.1,0.2,0.2c0.1,0.1,0.1,0.1,0.1,0.1s0,0.1,0.2,0.3c0.2,0.2,0,0.1,0,0.2h0.1
		c0,0,0-0.1,0.1-0.1l0,0v0.1c0,0,0,0.1,0.1,0.1c0.1,0,0,0,0-0.1h0.1v0.1c0,0.1-0.1,0.1-0.1,0.1c0,0-0.1,0-0.1,0l0,0v0.1l0,0
		c0,0,0,0.1-0.1,0.1c0,0,0,0,0-0.1V5.4c0,0-0.1,0-0.1-0.1c0,0,0,0,0,0l0,0c-0.1,0.1-0.2,0.1-0.2,0.1c-0.2,0-0.2,0-0.3-0.2
		c-0.1-0.2,0.1-0.2,0.1-0.4s-0.1-0.1-0.2-0.1c-0.1,0-0.2-0.2-0.3-0.1c-0.1,0.1-0.1,0.2-0.1,0.3c0,0.2-0.1,0.1-0.3,0
		c-0.2-0.1-0.1-0.2-0.2-0.1c-0.2,0.1-0.2,0.1-0.2,0.2v0.2c0,0.1-0.1,0.1-0.3,0.1c-0.2,0,0,0,0,0.1c0,0.1,0.2,0.1,0.2,0.3
		c0,0.2-0.2,0.1-0.4,0c-0.2-0.1-0.1-0.1-0.2-0.2c-0.1-0.1-0.1-0.1-0.1-0.3c0-0.2,0.2,0,0.3-0.1s0-0.1-0.1-0.3
		c-0.1-0.2,0-0.3-0.1-0.3c-0.1-0.1-0.2,0-0.2-0.2c0-0.2,0-0.2-0.1,0c-0.1,0.1-0.1,0.2-0.2,0.3c-0.1,0.1-0.3,0.2-0.4,0.3
		c-0.2,0.1-0.3-0.1-0.3-0.1c-0.1-0.1,0.1,0,0.2-0.1c0.1-0.1-0.1-0.1-0.1-0.2c0-0.1,0-0.2,0.1-0.2c0.1-0.1,0.3,0,0.4,0s0-0.1-0.1-0.3
		c0-0.1-0.1-0.3-0.1-0.4c0-0.1-0.1-0.2-0.1-0.3c0-0.1,0.2,0,0.3,0s0-0.3,0.2-0.4c0.2-0.1,0-0.1-0.1-0.1h2.1
		C55.4,2.8,58,11.9,58,17.4C58,26.4,53.7,32.7,44,32.7L44,32.7z M43.7,5.5L43.7,5.5C43.8,5.5,43.7,5.5,43.7,5.5
		C43.6,5.5,43.7,5.5,43.7,5.5L43.7,5.5z M44.3,4.6L44.3,4.6z M44.3,19c0,0,0,0.1,0.1,0.1C44.3,19.2,44.3,19.1,44.3,19z M44.9,8.9
		c-0.1,0,0-0.1-0.1-0.2c0.1,0,0-0.3,0.2-0.2c0.2,0,0.1,0,0,0.1C44.8,8.7,45.1,8.9,44.9,8.9L44.9,8.9z M46.3,8.3c0.1,0,0.2,0,0.1,0.1
		c-0.1,0.1-0.1,0.2-0.2,0.1C46.4,8.4,46.2,8.3,46.3,8.3L46.3,8.3z M46.7,18.5c-0.1,0-0.7-0.2-0.6-0.3c0,0.1,0.2,0.1,0.2,0.1
		S46.9,18.5,46.7,18.5L46.7,18.5z M46.5,13.2c0.1-0.1,0.1,0.1,0,0.1C46.4,13.3,46.5,13.2,46.5,13.2L46.5,13.2z M47,13.5
		c-0.1,0-0.3,0.1-0.3-0.1c0-0.1,0.1-0.2,0.1-0.3c0,0,0.3,0,0.2,0.1C47,13.3,47,13.4,47,13.5L47,13.5z M46.9,17.8
		c0.1,0,0.3,0.5,0.1,0.4V18c0-0.3-0.4,0.3-0.4,0C46.6,17.8,46.9,18,46.9,17.8L46.9,17.8z M47.6,22.6c0,0,0.1,0.1,0.1,0.2
		c0,0-0.2,0-0.2,0c-0.1,0-0.1,0,0-0.1C47.5,22.6,47.6,22.7,47.6,22.6L47.6,22.6z M47.6,17.5c0.1,0,0.1,0.1,0.1,0.2
		C47.7,17.7,47.5,17.6,47.6,17.5L47.6,17.5z M47.5,17.8L47.5,17.8C47.5,17.9,47.4,18,47.5,17.8L47.5,17.8z M47.5,13.5
		c0.1,0,0.1,0,0.1,0.1S47.2,13.5,47.5,13.5L47.5,13.5z M47.5,18.5C47.5,18.5,47.4,18.5,47.5,18.5C47.4,18.3,47.4,18.4,47.5,18.5
		L47.5,18.5z M47.5,18.8c0.2,0-0.1,0.2-0.1,0.2c0,0.1-0.1,0-0.2,0s-0.1-0.1,0-0.1S47.3,18.9,47.5,18.8
		C47.5,18.9,47.3,18.9,47.5,18.8L47.5,18.8z M47.2,23.8C47.2,24,47.1,23.8,47.2,23.8C47.2,23.8,47.2,23.8,47.2,23.8L47.2,23.8z
		 M47,22C47,22,46.9,22,47,22C46.9,22,46.9,22,47,22L47,22z M46.7,7.5L46.7,7.5z M46.7,19c-0.2-0.1-0.3-0.2-0.4-0.4
		C46.4,18.6,46.5,18.9,46.7,19z M46.3,13.4L46.3,13.4C46.3,13.3,46.3,13.3,46.3,13.4L46.3,13.4z M46.4,17.9c0.1,0-0.1,0.3-0.2,0.2
		c-0.1-0.2-0.4-0.1-0.4,0.1s-0.2,0-0.2-0.1c0-0.1,0.1-0.1,0-0.2C45.9,17.9,46.2,17.9,46.4,17.9L46.4,17.9z M45.9,22.7
		C45.8,22.9,45.9,22.7,45.9,22.7C46,22.6,46,22.6,45.9,22.7z M45.8,13.8c-0.3,0,0-0.4,0.2,0C45.9,13.9,45.9,13.7,45.8,13.8
		L45.8,13.8z M45.3,18.9c-0.3,0,0.1-0.1,0.2-0.2c0.1,0,0.1,0,0.1,0C45.6,18.8,45.5,18.9,45.3,18.9L45.3,18.9z M45.6,19.5
		c0,0-0.1,0.1-0.2,0.1c-0.1,0-0.1-0.2,0-0.1C45.5,19.5,45.6,19.4,45.6,19.5L45.6,19.5z M45.3,23.5c0.2,0,0.2-0.2,0.3-0.1
		c0.4,0,0.2,0.3,0.5,0.4c0.3,0.1,0.4,0.1,0.1,0.2s-0.3-0.2-0.5-0.2c-0.3,0-0.5-0.1-0.8-0.1C45,23.5,45.2,23.5,45.3,23.5L45.3,23.5z
		 M44.8,19.4v0.2c0,0.1,0,0.1-0.1,0.1c-0.1,0,0.2,0.2,0.2,0.3c-0.1,0.3-0.5-0.2-0.5-0.4c0.3,0.1,0.2-0.2-0.1-0.3
		C44.7,19.2,44.6,19.2,44.8,19.4L44.8,19.4z M48.2,22.5c0.1,0.1-0.1,0.2,0.2,0.3c0.1,0.1-0.1,0-0.1,0c-0.1,0-0.3,0-0.3-0.2
		C48.1,22.4,48.2,22.7,48.2,22.5L48.2,22.5z M49.3,21.2V21C49.3,21,49.4,21.1,49.3,21.2L49.3,21.2z M49.5,21.8
		c0,0.1-0.1,0.1-0.2,0.1c-0.1,0.1,0,0.1,0,0C49.3,21.8,49.3,21.4,49.5,21.8L49.5,21.8z M49.3,18.1c-0.1,0.1-0.1,0-0.2,0.1
		c-0.1,0.1-0.2,0.2-0.4,0.3c-0.1,0-0.1-0.1-0.2-0.1s0-0.1,0-0.2c0-0.1-0.1-0.3,0-0.4c0.1-0.1,0.2,0.1,0.3,0c0.1-0.1,0.2-0.3,0.3,0.1
		S49.4,17.6,49.3,18.1L49.3,18.1z M48.7,22.2c0.6,0.2,0.1-0.1,0.5,0c0,0,0.1,0.1,0,0.1c-0.1,0-0.2,0.1-0.3,0.2
		C49,22.2,48.3,22.2,48.7,22.2L48.7,22.2z M48.7,23.2c0,0,0.1,0,0.2-0.1C48.9,23,48.6,23.2,48.7,23.2L48.7,23.2z M48.6,19.4
		L48.6,19.4C48.6,19.4,48.6,19.4,48.6,19.4L48.6,19.4z M48.4,23.5L48.4,23.5C48.4,23.4,48.4,23.4,48.4,23.5L48.4,23.5z M48.3,23.2
		C48.3,23.1,48.3,23.1,48.3,23.2C48.4,23.3,48.2,23.3,48.3,23.2L48.3,23.2z M50.2,21.2L50.2,21.2C50.2,21.3,50.1,21.1,50.2,21.2
		L50.2,21.2z M47.5,8.2c0,0-0.1,0.1-0.1,0C47.4,8.1,47.5,8.1,47.5,8.2z">
  </path>
  <path id="Shape-2" class="st0" d="M16.9,40.6c-2.6-0.1-4.7,1.9-4.8,4.5c0,0.1,0,0.2,0,0.2c0,2.5,1.9,4.5,4.4,4.5c0.1,0,0.2,0,0.4,0
		c2.5,0,4.6-2,4.6-4.5c0-0.1,0-0.1,0-0.2c0.1-2.4-1.8-4.5-4.3-4.6C17.2,40.6,17.1,40.6,16.9,40.6z M17.1,49.4
		c-2.6,0-3.6-2.6-3.6-4.5c0-2.9,1.8-3.9,3.2-3.9c2.5,0,3.5,2.4,3.5,4.6C20.2,48.2,18.7,49.4,17.1,49.4z M31,40.8
		c0.1,0,0.1,0.2,0,0.3h-0.3c-0.3,0-0.5,0.1-0.7,0.3c-0.2,0.9-0.2,1.8-0.2,2.7v1.5c0.1,1.1-0.2,2.3-0.9,3.2c-0.7,0.7-1.6,1-2.6,1
		c-0.9,0.1-1.8-0.2-2.5-0.7c-0.8-0.8-1.2-2-1-3.1v-3.1c0-1.4,0-1.6-0.8-1.7h-0.3c-0.1,0-0.1-0.3,0-0.3h3.3c0.1,0,0.1,0.3,0,0.3h-0.3
		c-0.8,0.1-0.8,0.3-0.8,1.7v2.9c0,2.1,0.7,3.6,2.7,3.6s2.7-1.5,2.7-3.6v-1.5c0-0.9,0-1.9-0.3-2.8c-0.1-0.2-0.3-0.2-0.7-0.3h-0.3
		c-0.1-0.1-0.1-0.2,0-0.3c0,0,0,0,0,0h1.5C30,40.8,30.5,40.8,31,40.8z M36.6,44.9c-0.2,0-0.3-0.1-0.3-0.2c0.8-0.2,1.4-1,1.4-1.8
		c0-0.7-0.4-1.4-1-1.7c-0.7-0.3-1.5-0.4-2.3-0.4c-1,0-1.9,0-2.9,0.1c-0.1,0.1-0.1,0.2,0,0.3c0,0,0,0,0,0H32c0.6,0.1,0.7,0.3,0.7,1.3
		v5.1c0,1.4,0,1.5-0.7,1.7h-0.2c-0.1,0.1-0.1,0.3,0,0.3h3.1c2.4,0,3.6-1,3.6-2.5C38.4,46,37.6,45.1,36.6,44.9z M33.7,41.6
		c0-0.2,0.1-0.3,0.2-0.3c0.2-0.1,0.4-0.1,0.6-0.1c1,0,2,0.5,2,1.8s-0.7,1.7-2.1,1.7c-0.7,0-0.7,0-0.7-0.4L33.7,41.6z M35,49.3
		c-0.4,0-0.8-0.1-1.1-0.4c-0.2-0.5-0.3-1-0.3-1.5v-1.9c0-0.3,0.1-0.3,0.8-0.3c2.1,0,2.7,1.2,2.7,2.3C37.1,48.7,36.2,49.3,35,49.3z
		 M46.2,47.8c-0.1,0.6-0.3,1.3-0.6,1.9h-6.3c-0.1,0-0.1-0.2,0-0.3h0.4c0.8,0,0.8-0.3,0.8-1.7v-4.8c0-1.4,0-1.6-0.9-1.7h-0.3
		c-0.1-0.1,0-0.3,0-0.3h3.4c0.1,0,0.1,0.3,0,0.3h-0.3c-0.8,0-0.8,0.3-0.8,1.7v4.6c0,0.8,0,1.2,0.3,1.4c0.3,0.2,0.4,0.3,1.5,0.3
		s1.4-0.1,1.6-0.2c0.4-0.3,0.7-0.8,0.9-1.3C45.9,47.7,46.2,47.7,46.2,47.8z M53.8,47.9c-0.1,0.6-0.3,1.2-0.6,1.8h-6.6
		c-0.1,0-0.1-0.2,0-0.3h0.4c0.8,0,0.8-0.3,0.8-1.7V43c0-1.4,0-1.6-0.8-1.7h-0.2c-0.1-0.1,0-0.3,0-0.3H51c0.6,0,1.2,0,1.8,0
		c0.1,0.2,0.1,1.2,0.2,1.8c-0.1,0.1-0.3,0.1-0.3,0c-0.2-0.6-0.3-1.1-1-1.3c-0.4-0.1-0.9-0.1-1.3-0.1h-1c-0.4,0-0.4,0-0.4,0.5v2.7
		c0,0.4,0,0.4,0.4,0.4h0.8c0.4,0,0.8,0,1.1-0.1c0.2,0,0.2-0.1,0.3-0.5l0.1-0.6h0.4v2.6c0,0.3-0.3,0.1-0.4,0L51.7,46
		c0-0.2-0.2-0.4-0.4-0.5c-0.3-0.1-0.7-0.1-1-0.1h-0.8c-0.4,0-0.4,0-0.4,0.4v1.9c0,0.7,0,1.2,0.3,1.4c0.3,0.2,0.4,0.3,1.6,0.3
		c0.6,0.1,1.2,0,1.7-0.3c0.4-0.3,0.8-0.8,1-1.3C53.6,47.7,53.8,47.7,53.8,47.9z M7.9,39.6c-1.1-0.4-2.3-0.5-3.4-0.5
		c-1.3,0-2.6,0-4,0.1c-0.1,0.1-0.1,0.2-0.1,0.3c0,0,0,0,0.1,0.1h0.3c0.7,0.1,0.7,0.4,0.7,1.5v6c0,1.7,0,1.8-1,2H0.3
		c-0.1,0.1-0.1,0.3,0,0.4h2c0.7,0,1.6,0.1,2.6,0.1C6,49.7,7.2,49.5,8.3,49c1.7-0.9,2.8-2.8,2.7-4.7C11.2,42.2,9.9,40.3,7.9,39.6z
		 M5.1,49.2c-1,0-1.6-0.2-1.9-0.7c-0.3-0.5-0.4-1.1-0.3-1.7V41c0-0.7,0-1.1,0.2-1.2c0.5-0.2,1-0.3,1.6-0.2c4.1,0,5,2.9,5,4.7
		C9.5,47.2,8.1,49.2,5.1,49.2L5.1,49.2z M56.2,39.3H64c0,0.6-0.1,1.5-0.1,2c0,0.1-0.3,0.1-0.4,0c0-0.4-0.1-0.9-0.4-1.2
		c-0.6-0.3-1.2-0.4-1.8-0.4h-1.1c-0.5,0-0.5,0-0.5,0.5v7c0,1.7,0,1.9,0.9,2h0.5c0.1,0.1,0,0.4,0,0.4h-4.3c-0.1-0.1-0.1-0.2-0.1-0.3
		c0,0,0-0.1,0.1-0.1h0.6c0.9-0.1,1-0.3,1-2v-7c0-0.5,0-0.5-0.5-0.5H57c-0.7-0.1-1.4,0.1-2,0.4c-0.3,0.3-0.5,0.7-0.6,1.1
		c-0.1,0.1-0.4,0-0.4-0.1c0.1-0.7,0.1-1.2,0.2-1.9C54.3,39.2,55.5,39.3,56.2,39.3z M80.1,47.8c-0.2,0.5-0.5,0.9-0.9,1.3
		c-0.5,0.2-1.1,0.3-1.7,0.2c-1.2,0-1.5-0.2-1.6-0.3c-0.2-0.4-0.3-0.9-0.3-1.4v-1.9c0-0.3,0-0.4,0.5-0.4h0.8c0.3,0,0.7,0,1,0
		c0.2,0.1,0.4,0.3,0.4,0.5l0.1,0.5c0.1,0.1,0.2,0.1,0.3,0v-1.3c0-0.5,0.1-1,0.1-1.4c-0.1-0.1-0.2-0.1-0.3,0l-0.1,0.6
		c-0.1,0.3-0.2,0.4-0.3,0.5c-0.4,0.1-0.8,0.1-1.2,0.1H76c-0.4,0-0.5,0-0.5-0.4v-2.6c0-0.5,0-0.5,0.4-0.5h1c0.4,0,0.9,0,1.3,0.1
		c0.7,0.2,0.8,0.6,1,1.3c0,0.1,0.3,0,0.3,0c0-0.6-0.1-1.2-0.2-1.8c-0.6,0-1.2,0-1.8,0h-4.1c-0.1,0-0.1,0.3,0,0.3h0.2
		c0.8,0.1,0.8,0.3,0.8,1.7v4.8c0,1.4,0,1.6-0.8,1.7h-0.5c-0.3,0-0.7,0-0.9-0.2c-1.1-1-2-2.3-2.7-3.6c-0.1-0.1-0.1-0.2-0.1-0.3
		c0.9-0.3,1.6-1.2,1.6-2.1c0-0.8-0.4-1.5-1.1-1.9c-0.7-0.3-1.5-0.4-2.2-0.4c-1,0-2,0-3,0.1c-0.1,0.1-0.1,0.2,0,0.3c0,0,0,0,0,0h0.4
		c0.6,0,0.6,0.3,0.6,1.6v4.8c0,1.4,0,1.5-0.8,1.7h-0.3c-0.1,0.1,0,0.3,0,0.3H68c0.1,0,0.1-0.3,0-0.3h-0.3c-0.8-0.1-0.8-0.3-0.8-1.7
		V46c0-0.3,0-0.3,0.6-0.3c0.4-0.1,0.7,0.1,0.9,0.4c0.4,0.6,1,1.5,1.3,2c0.9,1.4,1.6,1.7,2.7,1.7c0.3,0,0.5-0.1,0.8-0.1h6.5
		c0.3-0.6,0.5-1.2,0.6-1.8C80.3,47.8,80.2,47.7,80.1,47.8L80.1,47.8z M67.9,45.3c-0.3,0-0.6,0-0.9-0.1v-3.6c0-0.4,0-0.4,0.9-0.4
		c1.1-0.1,2,0.7,2.1,1.8c0,0.1,0,0.2,0,0.3c0.1,0.6-0.2,1.2-0.6,1.6C68.9,45.2,68.4,45.3,67.9,45.3z M88.4,47.9
		c-0.2,0.6-0.3,1.2-0.6,1.8h-6.6c-0.1,0-0.1-0.2,0-0.3h0.5c0.8-0.1,0.8-0.3,0.8-1.7V43c0-1.4,0-1.6-0.8-1.7h-0.2v-0.3h4
		c0.6,0,1.2,0,1.8,0c0.1,0.2,0.2,1.2,0.2,1.8c-0.1,0-0.3,0.1-0.3,0c-0.2-0.6-0.3-1.1-1-1.3c-0.4-0.1-0.9-0.1-1.3-0.1h-1
		c-0.4,0-0.4,0-0.4,0.5v2.7c0,0.4,0,0.4,0.4,0.4h0.8c0.4,0,0.8,0,1.2-0.1c0.1,0,0.2-0.1,0.3-0.5l0.1-0.5c0.1-0.1,0.2-0.1,0.3,0v2.6
		c0,0.1-0.3,0.1-0.4,0l-0.1-0.5c0-0.2-0.2-0.4-0.4-0.5c-0.3-0.1-0.7-0.1-1-0.1h-0.8c-0.4,0-0.4,0-0.4,0.4v1.9c0,0.7,0,1.2,0.3,1.4
		c0.3,0.2,0.4,0.3,1.6,0.3c0.6,0.1,1.1,0,1.6-0.2c0.4-0.3,0.7-0.8,0.9-1.3C88.2,47.7,88.4,47.8,88.4,47.9z">
  </path>
  <path id="Shape-3" class="st0" d="M27.4,56.3c-0.5,0-1,0.2-1.4,0.6v-2.5h-1.5v0.3l0.4,0.1v5.7l-0.4,0.1v0.3H26v-0.2
		c0.3,0.2,0.7,0.3,1.1,0.3c1.3,0,2.1-0.9,2.1-2.4C29.2,57.2,28.4,56.3,27.4,56.3z M27,60.5c-0.4,0-0.7-0.1-1-0.4v-2.8
		c0.2-0.1,0.5-0.2,0.8-0.2c0.7,0,1.2,0.6,1.2,1.7C28,59.8,27.6,60.5,27,60.5z M32.7,56.4h1.3v0.3h-0.4l-1.8,4.3
		c-0.4,1-0.8,1.8-1.6,1.8c-0.2,0-0.5,0-0.7-0.1v-1h0.3l0.2,0.4c0.1,0.1,0.2,0.1,0.4,0.1c0.5,0,0.9-0.8,1.1-1.3V61l-1.8-4.1l-0.4-0.1
		v-0.3h2v0.3l-0.4,0.1l1.1,2.7l1.1-2.7l-0.4-0.1L32.7,56.4L32.7,56.4z M39.9,54.6H42v0.3L41.6,55v5.4l0.4,0.1v0.3h-2.1v-0.3l0.4-0.1
		V58h-2.7v2.5l0.4,0.1v0.3h-2v-0.3l0.4-0.1v-5.4L36.1,55v-0.3h2V55l-0.4,0.1v2.3h2.7v-2.3L39.9,55V54.6z M44.4,60.5l0.4,0.1v0.3
		h-1.9v-0.3l0.4-0.1v-3.7h-0.4v-0.3h1.5L44.4,60.5z M43.2,55.1c0-0.4,0.2-0.7,0.6-0.7c0.4,0,0.7,0.2,0.7,0.6c0,0,0,0.1,0,0.1
		c0,0.4-0.3,0.7-0.6,0.7c0,0,0,0,0,0C43.5,55.8,43.2,55.5,43.2,55.1C43.2,55.1,43.2,55.1,43.2,55.1L43.2,55.1z M47.2,60.5l0.4,0.1
		v0.3h-1.9v-0.3l0.4-0.1v-5.7l-0.4-0.1v-0.3h1.5L47.2,60.5z M50.6,60.3c0.2,0,0.4,0,0.6,0v0.3c-0.4,0.2-0.9,0.3-1.4,0.3
		c-0.9,0-1.1-0.4-1.1-1.2v-2.9h-0.8v-0.4h0.8v-0.9l1.1-0.3v1.2h1v0.4h-1v2.6C49.9,60.1,50,60.3,50.6,60.3L50.6,60.3z M53.8,56.3
		c-1.2-0.1-2.3,0.8-2.4,2c0,0.1,0,0.2,0,0.3c-0.2,1.1,0.6,2.1,1.7,2.3c0.2,0,0.4,0,0.6,0c1.2,0.1,2.3-0.8,2.4-1.9c0-0.1,0-0.2,0-0.3
		c0.2-1.2-0.7-2.2-1.8-2.4C54.2,56.3,54,56.2,53.8,56.3z M53.8,60.5c-0.6,0-1.1-0.6-1.1-2s0.4-2,1.1-2c0.6,0,1.1,0.6,1.1,2
		c0,1.4-0.5,2-1.2,2L53.8,60.5z M61.2,60.4l0.4,0.1v0.3h-2v-0.3l0.4-0.1V58c0-0.7-0.3-1-0.8-1c-0.3,0-0.6,0.2-0.9,0.4v3.1l0.4,0.1
		v0.3h-1.9v-0.3l0.4-0.1v-3.7h-0.4v-0.3h1.5v0.6c0.4-0.4,1-0.7,1.6-0.7c0.9,0,1.2,0.5,1.2,1.5v2.6L61.2,60.4z M61.6,54.6h1.2v0.3
		h-0.1v-0.1h-0.5v1.1h0.1v0.1h-0.6v-0.1h0.2v-1.1h-0.3v0.1h-0.1v-0.3L61.6,54.6z M64.4,54.7v1.1h0.1v0.1H64v-0.1h0.1v-1l-0.5,1.1
		l0,0l-0.5-1.1v1h0.1v0.1H63v-0.1h0.1v-1.1H63v-0.1h0.5l0.4,0.8l0.4-0.8h0.4v0.1L64.4,54.7z">
  </path>
 </g>
</svg>