<svg width="264" height="28" viewBox="0 0 264 28" fill="none" xmlns="http://www.w3.org/2000/svg">
<path d="M233.53 26.7455H238.128V12.3051C238.128 10.8006 239.123 10.1374 240.531 11.081L264 26.9208V1.25632H259.402V15.6968C259.402 17.2012 258.407 17.8645 257 16.9208L233.53 1.08107V26.7482V26.7455ZM217.402 19.4363H205.6C204.296 19.4363 203.886 18.3174 204.64 17.3037L210.061 9.95942C211.056 8.63023 211.947 8.63023 212.942 9.95942L218.363 17.3037C219.117 18.3174 218.707 19.4363 217.402 19.4363ZM197.708 26.7455L199.185 24.7881C199.838 23.9146 200.626 23.4239 201.621 23.4239H221.387C222.382 23.4239 223.17 23.9146 223.823 24.7881L225.3 26.7455H230.789L211.503 1.08107L192.219 26.7482H197.708V26.7455ZM184.874 26.7455H189.472V1.25632H184.874V26.7482V26.7455ZM168.096 14.8205H156.122C154.748 14.8205 154.063 14.1222 154.063 12.723V7.30374C154.063 5.90445 154.748 5.20615 156.122 5.20615H168.096C171.802 5.20615 174.101 6.78069 174.101 9.99717C174.101 13.2137 171.802 14.8232 168.096 14.8232M167.17 19.7545L174.787 26.7482H180.93L173.279 19.7545C172.525 19.0562 172.628 18.0074 173.726 17.4816C176.334 16.2225 178.906 13.9497 178.906 9.99987C178.906 4.44045 175.268 1.25902 168.233 1.25902H149.465V26.7509H154.063V20.841C154.063 19.4417 154.748 18.7434 156.122 18.7434H163.945C165.593 18.7434 166.416 19.0589 167.17 19.7572M119.818 5.45419H129.493C136.459 5.45419 140.166 9.09127 140.166 13.9874C140.166 18.8836 136.459 22.5557 129.493 22.5557H119.818C118.445 22.5557 117.76 21.8574 117.76 20.4581V7.54908C117.76 6.14979 118.445 5.4515 119.818 5.4515M129.562 1.25632H113.162V26.7482H129.665C138.346 26.7482 144.968 21.7469 144.968 13.9847C144.968 6.22259 138.348 1.25632 129.565 1.25632M76.7922 26.7482H81.3903V12.3078C81.3903 10.8033 82.3851 10.1401 83.7926 11.0837L107.262 26.9235V1.25632H102.664V15.6968C102.664 17.2012 101.669 17.8645 100.262 16.9208L76.7922 1.08107V26.7482ZM55.725 23.041C48.6903 23.041 43.817 19.1586 43.817 13.9847C43.817 8.81087 48.6903 4.9635 55.725 4.9635C62.7598 4.9635 67.5642 8.84323 67.5642 13.9847C67.5642 19.1263 62.7254 23.041 55.725 23.041ZM55.725 27.2362C65.3313 27.2362 72.3661 21.6067 72.3661 13.9847C72.3661 6.36279 65.2969 0.765625 55.7224 0.765625C46.1478 0.765625 39.0125 6.39514 39.0125 13.982C39.0125 21.569 46.0817 27.2335 55.7224 27.2335M0 26.7455H4.59811V15.4865C4.59811 14.2624 5.76484 13.9119 6.65642 14.9284L17.2945 26.9208L27.9326 14.9284C28.8242 13.9146 29.9909 14.2624 29.9909 15.4865V26.7455H34.589V1.08107L18.5644 19.1937C17.776 20.1023 16.8157 20.1023 16.0246 19.1937L0 1.08107V26.7482V26.7455Z" fill="white"/>
</svg>
