<?xml version="1.0" encoding="utf-8"?>
<!-- Generator: Adobe Illustrator 28.1.0, SVG Export Plug-In . SVG Version: 6.00 Build 0)  -->
<svg version="1.1" id="레이어_1" xmlns="http://www.w3.org/2000/svg" xmlns:xlink="http://www.w3.org/1999/xlink" x="0px"
	 y="0px" viewBox="0 0 300 80" style="enable-background:new 0 0 300 80;" xml:space="preserve">
<style type="text/css">
	.st0{fill:#686058;}
</style>
<g>
	<g>
		<path class="st0" d="M89.27,72.94c-0.24-0.11-0.29-0.18-0.29-0.52c0-0.84,0.06-1.75,0.08-1.99c0.01-0.23,0.06-0.4,0.18-0.4
			c0.14,0,0.15,0.14,0.15,0.26c0,0.2,0.06,0.52,0.14,0.78c0.34,1.12,1.23,1.53,2.18,1.53c1.37,0,2.04-0.93,2.04-1.73
			c0-0.75-0.23-1.45-1.49-2.43l-0.7-0.55c-1.67-1.31-2.25-2.37-2.25-3.6c0-1.67,1.4-2.88,3.51-2.88c0.99,0,1.63,0.15,2.02,0.26
			c0.14,0.03,0.21,0.08,0.21,0.18c0,0.2-0.06,0.64-0.06,1.82c0,0.34-0.05,0.46-0.17,0.46c-0.11,0-0.15-0.09-0.15-0.27
			c0-0.14-0.08-0.61-0.4-1.01c-0.23-0.29-0.67-0.75-1.66-0.75c-1.12,0-1.81,0.65-1.81,1.57c0,0.7,0.35,1.23,1.61,2.19l0.43,0.32
			c1.84,1.38,2.5,2.43,2.5,3.88c0,0.88-0.33,1.93-1.43,2.65c-0.76,0.49-1.61,0.62-2.42,0.62C90.61,73.33,89.92,73.22,89.27,72.94z"
			/>
		<path class="st0" d="M104.28,69.15c-0.08,0-0.11,0.03-0.14,0.12l-0.82,2.18c-0.15,0.38-0.23,0.75-0.23,0.93
			c0,0.27,0.14,0.47,0.61,0.47h0.23c0.18,0,0.23,0.03,0.23,0.12c0,0.12-0.09,0.15-0.26,0.15c-0.49,0-1.14-0.05-1.61-0.05
			c-0.17,0-1,0.05-1.8,0.05c-0.2,0-0.29-0.03-0.29-0.15c0-0.09,0.06-0.12,0.18-0.12c0.14,0,0.35-0.01,0.47-0.03
			c0.7-0.09,0.99-0.61,1.29-1.37l3.82-9.56c0.18-0.44,0.28-0.61,0.43-0.61c0.14,0,0.23,0.14,0.38,0.49c0.37,0.84,2.8,7.04,3.77,9.36
			c0.58,1.37,1.02,1.58,1.34,1.66c0.23,0.04,0.46,0.06,0.64,0.06c0.12,0,0.2,0.02,0.2,0.12c0,0.12-0.14,0.15-0.7,0.15
			c-0.55,0-1.66,0-2.87-0.03c-0.28-0.01-0.46-0.01-0.46-0.12c0-0.09,0.06-0.12,0.21-0.14c0.11-0.03,0.21-0.17,0.14-0.35l-1.22-3.23
			c-0.03-0.08-0.08-0.11-0.15-0.11H104.28z M107.38,68.39c0.08,0,0.09-0.05,0.08-0.09l-1.37-3.76c-0.01-0.06-0.03-0.14-0.08-0.14
			c-0.05,0-0.08,0.08-0.09,0.14l-1.4,3.74c-0.02,0.06,0,0.11,0.06,0.11H107.38z"/>
		<path class="st0" d="M119.46,61.58c0.05-0.26,0.14-0.4,0.26-0.4c0.12,0,0.21,0.08,0.41,0.47l4.15,8.58l4.14-8.69
			c0.12-0.24,0.2-0.36,0.34-0.36c0.14,0,0.23,0.15,0.27,0.47l1.38,9.4c0.14,0.96,0.29,1.4,0.75,1.54c0.44,0.14,0.75,0.15,0.94,0.15
			c0.14,0,0.24,0.02,0.24,0.11c0,0.12-0.18,0.17-0.4,0.17c-0.38,0-2.48-0.05-3.09-0.09c-0.35-0.03-0.44-0.08-0.44-0.17
			c0-0.08,0.06-0.12,0.17-0.17c0.09-0.03,0.14-0.23,0.08-0.65l-0.91-6.7h-0.06l-3.32,6.91c-0.35,0.72-0.43,0.85-0.56,0.85
			c-0.14,0-0.29-0.3-0.53-0.76c-0.36-0.7-1.57-3.03-1.75-3.45c-0.14-0.32-1.05-2.24-1.58-3.38h-0.06l-0.79,6.06
			c-0.03,0.27-0.04,0.47-0.04,0.72c0,0.29,0.2,0.43,0.46,0.49c0.27,0.06,0.49,0.07,0.64,0.07c0.12,0,0.23,0.03,0.23,0.11
			c0,0.14-0.14,0.17-0.36,0.17c-0.64,0-1.32-0.05-1.6-0.05c-0.29,0-1.02,0.05-1.51,0.05c-0.15,0-0.27-0.03-0.27-0.17
			c0-0.08,0.09-0.11,0.24-0.11c0.12,0,0.23,0,0.46-0.04c0.43-0.09,0.55-0.69,0.62-1.2L119.46,61.58z"/>
		<path class="st0" d="M137.9,71.57c-1.49-1.31-1.89-3.01-1.89-4.49c0-1.04,0.32-2.83,1.78-4.17c1.09-1,2.54-1.61,4.81-1.61
			c0.94,0,1.51,0.06,2.21,0.15c0.58,0.08,1.06,0.21,1.52,0.26c0.17,0.01,0.23,0.09,0.23,0.18c0,0.12-0.05,0.3-0.08,0.84
			c-0.03,0.5-0.02,1.34-0.05,1.64c-0.01,0.23-0.05,0.35-0.18,0.35c-0.12,0-0.15-0.12-0.15-0.33c-0.01-0.47-0.21-1.01-0.59-1.4
			c-0.5-0.53-1.69-0.94-3.09-0.94c-1.32,0-2.19,0.33-2.86,0.94c-1.11,1.02-1.4,2.47-1.4,3.94c0,3.62,2.75,5.42,4.79,5.42
			c1.35,0,2.18-0.15,2.78-0.85c0.26-0.29,0.46-0.73,0.52-1c0.04-0.24,0.08-0.3,0.2-0.3c0.11,0,0.14,0.11,0.14,0.23
			c0,0.18-0.18,1.51-0.33,2.02c-0.08,0.26-0.14,0.33-0.4,0.44c-0.61,0.24-1.77,0.35-2.74,0.35
			C141.03,73.23,139.28,72.77,137.9,71.57z"/>
		<path class="st0" d="M161.56,66.35c0.04,0,0.09-0.03,0.09-0.11v-0.32c0-2.31,0-2.74-0.03-3.22c-0.03-0.52-0.15-0.76-0.65-0.87
			c-0.12-0.03-0.38-0.05-0.59-0.05c-0.17,0-0.26-0.03-0.26-0.14c0-0.11,0.11-0.14,0.32-0.14c0.82,0,1.78,0.05,2.19,0.05
			c0.36,0,1.32-0.05,1.92-0.05c0.21,0,0.32,0.03,0.32,0.14c0,0.11-0.09,0.14-0.27,0.14c-0.12,0-0.26,0.02-0.44,0.05
			c-0.41,0.08-0.53,0.33-0.56,0.87c-0.03,0.49-0.03,0.91-0.03,3.22v2.68c0,1.4,0,2.6,0.08,3.26c0.05,0.43,0.14,0.76,0.59,0.82
			c0.21,0.03,0.55,0.06,0.77,0.06c0.17,0,0.24,0.05,0.24,0.12c0,0.11-0.12,0.15-0.3,0.15c-0.99,0-1.95-0.05-2.37-0.05
			c-0.35,0-1.31,0.05-1.9,0.05c-0.21,0-0.32-0.05-0.32-0.15c0-0.08,0.06-0.12,0.24-0.12c0.23,0,0.41-0.03,0.55-0.06
			c0.3-0.06,0.38-0.4,0.44-0.84c0.08-0.64,0.08-1.84,0.08-3.24v-1.34c0-0.06-0.05-0.09-0.09-0.09h-5.81c-0.04,0-0.09,0.01-0.09,0.09
			v1.34c0,1.4,0,2.6,0.08,3.26c0.04,0.43,0.14,0.76,0.59,0.82c0.21,0.03,0.55,0.06,0.78,0.06c0.17,0,0.24,0.05,0.24,0.12
			c0,0.11-0.12,0.15-0.3,0.15c-0.99,0-1.95-0.05-2.37-0.05c-0.35,0-1.31,0.05-1.92,0.05c-0.2,0-0.3-0.05-0.3-0.15
			c0-0.08,0.06-0.12,0.24-0.12c0.23,0,0.41-0.03,0.55-0.06c0.3-0.06,0.38-0.4,0.44-0.84c0.08-0.64,0.08-1.84,0.08-3.24v-2.68
			c0-2.31,0-2.74-0.03-3.22c-0.03-0.52-0.15-0.76-0.65-0.87c-0.12-0.03-0.38-0.05-0.59-0.05c-0.17,0-0.26-0.03-0.26-0.14
			c0-0.11,0.11-0.14,0.32-0.14c0.82,0,1.78,0.05,2.19,0.05c0.36,0,1.32-0.05,1.92-0.05c0.21,0,0.32,0.03,0.32,0.14
			c0,0.11-0.09,0.14-0.27,0.14c-0.12,0-0.26,0.02-0.44,0.05c-0.41,0.08-0.53,0.33-0.56,0.87c-0.03,0.49-0.03,0.91-0.03,3.22v0.32
			c0,0.08,0.05,0.11,0.09,0.11H161.56z"/>
		<path class="st0" d="M172.31,65.93c0-2.31,0-2.74-0.03-3.22c-0.03-0.52-0.15-0.76-0.65-0.87c-0.12-0.03-0.38-0.05-0.59-0.05
			c-0.17,0-0.26-0.03-0.26-0.14c0-0.11,0.11-0.14,0.33-0.14c0.41,0,0.85,0.01,1.23,0.01c0.4,0.01,0.75,0.03,0.96,0.03
			c0.49,0,3.52,0,3.8-0.02c0.29-0.03,0.53-0.06,0.65-0.09c0.08-0.01,0.17-0.06,0.24-0.06s0.09,0.06,0.09,0.14
			c0,0.11-0.08,0.29-0.12,0.99c-0.01,0.15-0.05,0.82-0.08,1.01c-0.01,0.08-0.05,0.17-0.15,0.17c-0.11,0-0.14-0.08-0.14-0.21
			c0-0.11-0.01-0.36-0.09-0.55c-0.11-0.28-0.26-0.46-1.02-0.55c-0.26-0.03-1.86-0.06-2.16-0.06c-0.08,0-0.11,0.05-0.11,0.15v3.85
			c0,0.11,0.01,0.17,0.11,0.17c0.33,0,2.08,0,2.43-0.03c0.36-0.03,0.59-0.08,0.73-0.23c0.11-0.12,0.17-0.2,0.24-0.2
			c0.06,0,0.11,0.03,0.11,0.12c0,0.09-0.06,0.33-0.12,1.11c-0.01,0.3-0.06,0.91-0.06,1.02c0,0.12,0,0.29-0.14,0.29
			c-0.11,0-0.14-0.06-0.14-0.14c-0.02-0.15-0.02-0.35-0.06-0.55c-0.08-0.3-0.29-0.53-0.85-0.59c-0.29-0.03-1.8-0.04-2.16-0.04
			c-0.08,0-0.09,0.06-0.09,0.15v1.2c0,0.52-0.02,1.92,0,2.36c0.03,1.05,0.27,1.28,1.82,1.28c0.4,0,1.04,0,1.43-0.18
			c0.4-0.18,0.58-0.5,0.68-1.13c0.03-0.17,0.06-0.23,0.17-0.23c0.12,0,0.12,0.12,0.12,0.28c0,0.35-0.12,1.38-0.2,1.69
			c-0.11,0.39-0.24,0.39-0.82,0.39c-1.14,0-1.98-0.03-2.63-0.04c-0.65-0.03-1.13-0.05-1.58-0.05c-0.17,0-0.5,0-0.87,0.01
			c-0.35,0-0.75,0.03-1.05,0.03c-0.2,0-0.3-0.05-0.3-0.15c0-0.08,0.06-0.12,0.24-0.12c0.23,0,0.41-0.03,0.55-0.06
			c0.3-0.06,0.38-0.4,0.44-0.84c0.08-0.64,0.08-1.84,0.08-3.24V65.93z"/>
		<path class="st0" d="M183.17,67.27c0-2.6,1.72-5.96,6.28-5.96c3.79,0,6.15,2.21,6.15,5.69c0,3.48-2.43,6.24-6.3,6.24
			C184.94,73.23,183.17,69.96,183.17,67.27z M193.47,67.56c0-3.41-1.96-5.52-4.46-5.52c-1.75,0-3.74,0.97-3.74,4.76
			c0,3.16,1.75,5.68,4.67,5.68C191.01,72.47,193.47,71.95,193.47,67.56z"/>
		<path class="st0" d="M202.17,66.6h0.08c0.52-0.56,2.74-2.83,3.18-3.35c0.43-0.5,0.76-0.88,0.76-1.14c0-0.17-0.06-0.27-0.21-0.3
			c-0.14-0.03-0.2-0.06-0.2-0.15c0-0.11,0.08-0.14,0.24-0.14c0.32,0,1.16,0.05,1.57,0.05c0.47,0,1.31-0.05,1.78-0.05
			c0.15,0,0.26,0.03,0.26,0.14c0,0.11-0.08,0.14-0.23,0.14c-0.21,0-0.59,0.06-0.88,0.17c-0.47,0.18-0.99,0.5-1.64,1.14
			c-0.47,0.46-2.77,2.74-3.29,3.29c0.55,0.72,3.53,3.92,4.12,4.49c0.67,0.64,1.35,1.32,2.17,1.64c0.46,0.18,0.76,0.23,0.94,0.23
			c0.11,0,0.2,0.03,0.2,0.12c0,0.11-0.08,0.15-0.37,0.15h-1.32c-0.46,0-0.73,0-1.05-0.03c-0.82-0.07-1.23-0.41-1.89-0.99
			c-0.67-0.59-3.67-4.11-3.99-4.55l-0.17-0.23h-0.08v1.38c0,1.4,0,2.6,0.05,3.26c0.03,0.43,0.17,0.76,0.55,0.82
			c0.21,0.03,0.55,0.06,0.75,0.06c0.12,0,0.2,0.05,0.2,0.12c0,0.11-0.12,0.15-0.29,0.15c-0.85,0-1.81-0.05-2.19-0.05
			c-0.35,0-1.31,0.05-1.92,0.05c-0.2,0-0.3-0.05-0.3-0.15c0-0.08,0.06-0.12,0.24-0.12c0.23,0,0.41-0.03,0.55-0.06
			c0.3-0.06,0.38-0.4,0.44-0.84c0.08-0.64,0.08-1.84,0.08-3.24v-2.68c0-2.31,0-2.74-0.03-3.22c-0.03-0.52-0.15-0.76-0.65-0.87
			c-0.12-0.03-0.38-0.05-0.59-0.05c-0.17,0-0.26-0.03-0.26-0.14c0-0.11,0.11-0.14,0.33-0.14c0.81,0,1.76,0.05,2.13,0.05
			c0.36,0,1.32-0.05,1.84-0.05c0.21,0,0.32,0.03,0.32,0.14c0,0.11-0.09,0.14-0.21,0.14c-0.15,0-0.24,0.02-0.43,0.05
			c-0.41,0.08-0.53,0.33-0.56,0.87c-0.03,0.49-0.03,0.91-0.03,3.22V66.6z"/>
	</g>
	<g>
		<path class="st0" d="M0.75,42.72C0.05,42.39,0,42.2,0,40.91c0-2.38,0.2-4.29,0.25-5.05c0.05-0.52,0.15-0.76,0.4-0.76
			c0.3,0,0.35,0.14,0.35,0.52c0,0.43,0,1.1,0.15,1.76c0.75,3.52,4.06,4.86,7.42,4.86c4.81,0,7.17-3.29,7.17-6.33
			c0-3.29-1.45-5.19-5.77-8.57l-2.26-1.76c-5.32-4.14-6.52-7.1-6.52-10.33c0-5.1,4.01-8.57,10.38-8.57c1.96,0,3.41,0.19,4.66,0.48
			C17.2,7.34,17.6,7.38,18,7.38c0.4,0,0.5,0.1,0.5,0.33c0,0.24-0.2,1.81-0.2,5.05c0,0.76-0.1,1.1-0.35,1.1
			c-0.3,0-0.35-0.24-0.4-0.62c-0.05-0.57-0.35-1.86-0.65-2.38c-0.3-0.52-1.65-2.52-6.27-2.52c-3.46,0-6.17,2.05-6.17,5.52
			c0,2.71,1.3,4.43,6.12,8l1.4,1.05c5.92,4.43,7.32,7.38,7.32,11.19c0,1.95-0.8,5.57-4.26,7.9c-2.16,1.43-4.86,2-7.57,2
			C5.12,44,2.81,43.67,0.75,42.72z"/>
		<path class="st0" d="M46.58,6.67c11.28,0,19.71,6.76,19.71,17.86C66.28,35.19,58.36,44,46.28,44c-13.74,0-19.46-10.14-19.46-18.71
			C26.82,17.58,32.74,6.67,46.58,6.67z M47.63,42.2c4.51,0,13.84-2.48,13.84-16.33c0-11.43-7.32-17.57-15.24-17.57
			c-8.37,0-14.64,5.24-14.64,15.67C31.58,35.05,38.6,42.2,47.63,42.2z"/>
		<path class="st0" d="M82.62,29.62c0,7,0.2,10.05,1.1,10.9c0.8,0.76,2.11,1.1,6.02,1.1c2.66,0,4.86-0.05,6.07-1.43
			c0.65-0.76,1.15-1.95,1.3-2.86c0.05-0.38,0.15-0.62,0.45-0.62c0.25,0,0.3,0.19,0.3,0.71c0,0.52-0.35,3.38-0.75,4.76
			c-0.35,1.1-0.5,1.29-3.16,1.29c-3.61,0-6.22-0.1-8.32-0.14c-2.11-0.1-3.66-0.14-5.11-0.14c-0.2,0-1.05,0.05-2.06,0.05
			c-1,0.05-2.11,0.1-2.86,0.1c-0.55,0-0.8-0.1-0.8-0.38c0-0.14,0.1-0.29,0.4-0.29c0.45,0,1.05-0.1,1.5-0.19
			c1-0.19,1.25-1.24,1.45-2.62c0.25-2,0.25-5.76,0.25-10.33v-8.38c0-7.43,0-8.76-0.1-10.29c-0.1-1.62-0.5-2.38-2.16-2.71
			C75.75,8.05,74.9,8,74.45,8c-0.2,0-0.4-0.1-0.4-0.29c0-0.29,0.25-0.38,0.8-0.38c2.26,0,5.42,0.14,5.67,0.14s3.91-0.14,5.42-0.14
			c0.55,0,0.8,0.1,0.8,0.38c0,0.19-0.2,0.29-0.4,0.29c-0.35,0-1.05,0.05-1.65,0.14c-1.45,0.24-1.86,1.05-1.96,2.71
			c-0.1,1.52-0.1,2.86-0.1,10.29V29.62z"/>
		<path class="st0" d="M124.38,21.15c0-7.43,0-8.76-0.1-10.29c-0.1-1.62-0.5-2.38-2.16-2.71c-0.4-0.1-1.25-0.14-1.71-0.14
			c-0.2,0-0.4-0.1-0.4-0.29c0-0.29,0.25-0.38,0.8-0.38c2.26,0,5.42,0.14,5.67,0.14c1.2,0,3.16-0.14,5.47-0.14
			c8.22,0,10.03,4.76,10.03,7.14c0,3.91-2.36,6.24-4.71,8.57c3.71,1.1,8.67,4.48,8.67,10.05c0,5.09-4.21,10.38-12.79,10.38
			c-0.55,0-2.16-0.1-3.61-0.14c-1.45-0.1-2.86-0.14-3.06-0.14c-0.1,0-0.95,0-2.01,0.05c-1,0-2.16,0.1-2.91,0.1
			c-0.55,0-0.8-0.1-0.8-0.38c0-0.14,0.1-0.29,0.4-0.29c0.45,0,1.05-0.1,1.5-0.19c1-0.19,1.25-1.24,1.45-2.62
			c0.25-2,0.25-5.76,0.25-10.33V21.15z M128.39,22.19c0,0.33,0.1,0.43,0.35,0.52c0.3,0.05,1.2,0.19,3.06,0.19
			c2.81,0,3.51-0.1,4.56-1.24c1.05-1.14,1.81-2.86,1.81-4.81c0-3.95-1.85-8.19-6.77-8.19c-0.55,0-1.61,0.05-2.41,0.24
			c-0.45,0.1-0.6,0.24-0.6,0.52V22.19z M128.39,27.24c0,3.67,0,9.57,0.05,10.29c0.15,2.33,0.15,3,1.71,3.71
			c1.35,0.62,3.51,0.71,4.41,0.71c2.71,0,7.07-1.38,7.07-6.76c0-2.86-1-7-4.86-9.52c-1.71-1.1-2.96-1.24-4.16-1.38
			c-0.65-0.1-3.16-0.1-3.91-0.1c-0.2,0-0.3,0.1-0.3,0.33V27.24z"/>
		<path class="st0" d="M158.82,21.15c0-7.43,0-8.76-0.1-10.29c-0.1-1.62-0.5-2.38-2.16-2.71c-0.4-0.1-1.25-0.14-1.71-0.14
			c-0.2,0-0.4-0.1-0.4-0.29c0-0.29,0.25-0.38,0.8-0.38c1.15,0,2.51,0,3.61,0.05l2.06,0.1c0.35,0,10.33,0,11.48-0.05
			c0.95-0.05,1.75-0.14,2.16-0.24c0.25-0.05,0.45-0.24,0.7-0.24c0.15,0,0.2,0.19,0.2,0.43c0,0.33-0.25,0.9-0.4,2.24
			c-0.05,0.48-0.15,2.57-0.25,3.14c-0.05,0.24-0.15,0.52-0.35,0.52c-0.3,0-0.4-0.24-0.4-0.62c0-0.33-0.05-1.14-0.3-1.71
			c-0.35-0.76-0.85-1.33-3.56-1.62c-0.85-0.1-6.32-0.14-6.87-0.14c-0.2,0-0.3,0.14-0.3,0.48v13.14c0,0.33,0.05,0.48,0.3,0.48
			c0.65,0,6.82,0,7.97-0.1c1.2-0.1,1.9-0.19,2.36-0.67c0.35-0.38,0.55-0.62,0.75-0.62c0.15,0,0.25,0.1,0.25,0.38
			c0,0.29-0.25,1.1-0.4,2.67c-0.1,0.95-0.2,2.71-0.2,3.05c0,0.38,0,0.9-0.35,0.9c-0.25,0-0.35-0.19-0.35-0.43
			c0-0.48,0-0.95-0.2-1.57c-0.2-0.67-0.65-1.48-2.61-1.67c-1.35-0.14-6.32-0.24-7.17-0.24c-0.25,0-0.35,0.14-0.35,0.33v4.19
			c0,1.62-0.05,7.14,0,8.14c0.15,3.29,0.9,3.91,5.82,3.91c1.3,0,3.51,0,4.81-0.52c1.3-0.52,1.9-1.48,2.26-3.43
			c0.1-0.52,0.2-0.71,0.45-0.71c0.3,0,0.3,0.38,0.3,0.71c0,0.38-0.4,3.62-0.65,4.62c-0.35,1.24-0.75,1.24-2.71,1.24
			c-3.76,0-6.52-0.1-8.47-0.14c-1.96-0.1-3.16-0.14-3.91-0.14c-0.1,0-0.95,0-2.01,0.05c-1,0-2.16,0.1-2.91,0.1
			c-0.55,0-0.8-0.1-0.8-0.38c0-0.14,0.1-0.29,0.4-0.29c0.45,0,1.05-0.1,1.5-0.19c1-0.19,1.25-1.24,1.45-2.62
			c0.25-2,0.25-5.76,0.25-10.33V21.15z"/>
		<path class="st0" d="M198.41,8.53c0.6-1.57,0.8-1.86,1.1-1.86c0.3,0,0.5,0.24,1.1,1.71c0.75,1.81,8.63,21.48,11.68,28.72
			c1.81,4.24,3.26,5,4.31,5.29c0.75,0.24,1.5,0.29,2,0.29c0.3,0,0.5,0.05,0.5,0.29c0,0.29-0.45,0.38-1,0.38c-0.75,0-4.41,0-7.87-0.1
			c-0.95-0.05-1.5-0.05-1.5-0.33c0-0.19,0.15-0.29,0.35-0.33c0.3-0.1,0.6-0.52,0.3-1.29l-4.66-11.71c-0.1-0.19-0.2-0.29-0.45-0.29
			h-10.78c-0.25,0-0.4,0.14-0.5,0.38l-3.01,8.43c-0.45,1.19-0.7,2.33-0.7,3.19c0,0.95,1.05,1.38,1.9,1.38h0.5
			c0.35,0,0.5,0.1,0.5,0.29c0,0.29-0.3,0.38-0.75,0.38c-1.2,0-3.36-0.14-3.91-0.14c-0.55,0-3.31,0.14-5.67,0.14
			c-0.65,0-0.95-0.1-0.95-0.38c0-0.19,0.2-0.29,0.45-0.29c0.35,0,1.05-0.05,1.45-0.1c2.31-0.29,3.31-2.1,4.21-4.48L198.41,8.53z
			 M203.62,27.58c0.25,0,0.25-0.14,0.2-0.33l-4.76-12.86c-0.25-0.71-0.5-0.71-0.75,0l-4.41,12.86c-0.1,0.24,0,0.33,0.15,0.33H203.62
			z"/>
		<path class="st0" d="M224.85,38.86c-4.87-4.14-6.07-9.57-6.07-14.1c0-3.19,1.15-8.76,5.62-13c3.01-2.86,7.57-5.1,15.29-5.1
			c2.01,0,4.81,0.14,7.27,0.57c1.9,0.33,3.51,0.62,5.11,0.71c0.55,0.05,0.65,0.24,0.65,0.52c0,0.38-0.15,0.95-0.25,2.67
			c-0.1,1.57-0.1,4.19-0.15,4.91c-0.05,0.71-0.15,1-0.45,1c-0.35,0-0.4-0.33-0.4-1c0-1.86-0.8-3.81-2.11-4.86
			c-1.76-1.43-5.62-2.71-10.03-2.71c-6.67,0-9.78,1.86-11.53,3.48c-3.66,3.33-4.51,7.57-4.51,12.43c0,9.1,7.37,17.43,18.1,17.43
			c3.76,0,6.72-0.43,8.72-2.38c1.05-1.05,1.71-3.14,1.86-4c0.1-0.52,0.2-0.71,0.5-0.71c0.25,0,0.35,0.33,0.35,0.71
			c0,0.33-0.6,4.48-1.1,6.1c-0.3,0.9-0.4,1-1.3,1.38c-2,0.76-5.82,1.1-9.03,1.1C233.87,44,228.81,42.24,224.85,38.86z"/>
		<path class="st0" d="M295.14,29.53c0,4.57,0,8.33,0.25,10.33c0.15,1.38,0.45,2.43,1.96,2.62c0.7,0.1,1.81,0.19,2.26,0.19
			c0.3,0,0.4,0.14,0.4,0.29c0,0.24-0.25,0.38-0.8,0.38c-2.76,0-5.92-0.14-6.17-0.14s-3.41,0.14-4.91,0.14c-0.55,0-0.8-0.1-0.8-0.38
			c0-0.14,0.1-0.29,0.4-0.29c0.45,0,1.05-0.1,1.5-0.19c1-0.19,1.25-1.24,1.45-2.62c0.25-2,0.25-5.76,0.25-10.33v-5
			c0-0.19-0.15-0.29-0.3-0.29h-21.26c-0.15,0-0.3,0.05-0.3,0.29v5c0,4.57,0,8.33,0.25,10.33c0.15,1.38,0.45,2.43,1.96,2.62
			c0.7,0.1,1.81,0.19,2.26,0.19c0.3,0,0.4,0.14,0.4,0.29c0,0.24-0.25,0.38-0.8,0.38c-2.76,0-5.92-0.14-6.17-0.14
			s-3.41,0.14-4.91,0.14c-0.55,0-0.8-0.1-0.8-0.38c0-0.14,0.1-0.29,0.4-0.29c0.45,0,1.05-0.1,1.5-0.19c1-0.19,1.25-1.24,1.45-2.62
			c0.25-2,0.25-5.76,0.25-10.33v-8.38c0-7.43,0-8.76-0.1-10.29c-0.1-1.62-0.5-2.38-2.16-2.71c-0.4-0.1-1.25-0.14-1.71-0.14
			c-0.2,0-0.4-0.1-0.4-0.29c0-0.29,0.25-0.38,0.8-0.38c2.26,0,5.42,0.14,5.67,0.14s3.41-0.14,4.91-0.14c0.55,0,0.8,0.1,0.8,0.38
			c0,0.19-0.2,0.29-0.4,0.29c-0.35,0-0.65,0.05-1.25,0.14c-1.35,0.24-1.76,1.05-1.86,2.71c-0.1,1.52-0.1,2.86-0.1,10.29v1
			c0,0.24,0.15,0.29,0.3,0.29h21.26c0.15,0,0.3-0.05,0.3-0.29v-1c0-7.43,0-8.76-0.1-10.29c-0.1-1.62-0.5-2.38-2.16-2.71
			c-0.4-0.1-1.25-0.14-1.7-0.14c-0.2,0-0.4-0.1-0.4-0.29c0-0.29,0.25-0.38,0.8-0.38c2.26,0,5.42,0.14,5.67,0.14s3.41-0.14,4.91-0.14
			c0.55,0,0.8,0.1,0.8,0.38c0,0.19-0.2,0.29-0.4,0.29c-0.35,0-0.65,0.05-1.25,0.14c-1.35,0.24-1.75,1.05-1.86,2.71
			c-0.1,1.52-0.1,2.86-0.1,10.29V29.53z"/>
	</g>
</g>
</svg>
